<svg width="154" height="42" viewBox="0 0 154 42" fill="none" xmlns="http://www.w3.org/2000/svg">
<path d="M33.5938 4.08008C33.4375 4.17773 33.2715 4.23633 33.0957 4.25586C32.9199 4.27539 32.7344 4.30469 32.5391 4.34375C32.3633 4.36328 32.1973 4.40234 32.041 4.46094C31.8848 4.51953 31.7676 4.62695 31.6895 4.7832C31.4941 4.58789 31.2793 4.42187 31.0449 4.28516C30.8105 4.14844 30.5762 4.00195 30.3418 3.8457C30.1465 3.9043 29.9512 3.98242 29.7559 4.08008C29.5605 4.17773 29.3652 4.22656 29.1699 4.22656C29.0332 4.22656 28.8965 4.17773 28.7598 4.08008C28.6035 4.19727 28.418 4.29492 28.2031 4.37305C28.0078 4.43164 27.793 4.49023 27.5586 4.54883C27.3438 4.60742 27.1387 4.68555 26.9434 4.7832C26.7676 4.88086 26.6406 5.02734 26.5625 5.22266C26.5234 5.125 26.4258 5.0957 26.2695 5.13477C26.1328 5.17383 26.0547 5.125 26.0352 4.98828C25.4102 5.20313 24.7754 5.38867 24.1309 5.54492C23.4863 5.70117 22.8418 5.86719 22.1973 6.04297C21.5527 6.21875 20.918 6.41406 20.293 6.62891C19.668 6.84375 19.0625 7.10742 18.4766 7.41992C18.457 7.43945 18.4473 7.46875 18.4473 7.50781C18.4473 7.70312 18.4766 7.88867 18.5352 8.06445C18.5938 8.24023 18.6426 8.40625 18.6816 8.5625C18.3301 9.75391 18.0957 10.9648 17.9785 12.1953C17.8613 13.4258 17.7051 14.6367 17.5098 15.8281V15.9453C17.5098 16.043 17.5488 16.1211 17.627 16.1797C17.7051 16.2188 17.7441 16.2969 17.7441 16.4141L17.7148 16.4727C17.6172 16.5312 17.5488 16.6191 17.5098 16.7363C17.4707 16.834 17.4512 16.9414 17.4512 17.0586C17.4512 17.1367 17.4707 17.2539 17.5098 17.4102C17.1777 18.5234 16.9531 19.6562 16.8359 20.8086C16.7383 21.9609 16.6113 23.1133 16.4551 24.2656L16.1914 26.1992C16.1523 26.3164 16.1133 26.4336 16.0742 26.5508C16.0547 26.6484 16.0449 26.7559 16.0449 26.873C16.0449 27.498 16.084 28.1133 16.1621 28.7188C16.2598 29.3047 16.2891 29.9102 16.25 30.5352C16.4258 30.8086 16.5137 31.0723 16.5137 31.3262C16.5137 31.4238 16.5039 31.5215 16.4844 31.6191C16.4844 31.7168 16.4746 31.8145 16.4551 31.9121C16.709 32.166 17.002 32.3418 17.334 32.4395C17.6855 32.5566 17.998 32.7324 18.2715 32.9668V33.084C18.2715 33.2793 18.2422 33.4648 18.1836 33.6406C18.125 33.8359 18.0762 34.0312 18.0371 34.2266C17.998 34.3828 17.9492 34.6074 17.8906 34.9004C17.8516 35.1934 17.793 35.3887 17.7148 35.4863C17.6172 35.623 17.4707 35.7402 17.2754 35.8379C17.0996 35.9551 16.9238 36.0137 16.748 36.0137C16.6895 36.0137 16.6016 35.9844 16.4844 35.9258C16.3867 35.8672 16.3086 35.8184 16.25 35.7793C16.1523 35.7793 16.0254 35.8281 15.8691 35.9258C15.7129 36.0234 15.5566 36.0723 15.4004 36.0723C15.3223 36.0723 15.2539 36.0625 15.1953 36.043C15.1367 36.043 15.0684 36.0234 14.9902 35.9844C14.9121 35.7891 14.7949 35.6133 14.6387 35.457C14.502 35.3203 14.3359 35.1836 14.1406 35.0469C14.1602 34.7734 14.1113 34.5684 13.9941 34.4316C13.877 34.2949 13.7598 34.1191 13.6426 33.9043C13.6035 33.6309 13.5645 33.3184 13.5254 32.9668C13.5059 32.6152 13.3594 32.3613 13.0859 32.2051C13.1836 32.0684 13.2324 31.8828 13.2324 31.6484C13.2324 31.5508 13.2129 31.4434 13.1738 31.3262C13.1543 31.209 13.0957 31.1211 12.998 31.0625V31.0039C12.9785 30.9062 13.0078 30.8379 13.0859 30.7988C13.1836 30.7402 13.2324 30.6621 13.2324 30.5645V30.4473C13.0957 29.8223 13.0273 29.168 13.0273 28.4844C13.0273 27.8398 13.0469 27.2051 13.0859 26.5801C13.125 25.9355 13.125 25.291 13.0859 24.6465C13.2031 24.5488 13.291 24.3926 13.3496 24.1777C13.4277 23.9629 13.4863 23.7285 13.5254 23.4746C13.5645 23.2207 13.584 22.9766 13.584 22.7422C13.6035 22.4883 13.623 22.2832 13.6426 22.127C13.7402 21.0137 13.8965 19.9199 14.1113 18.8457C14.3262 17.752 14.4531 16.6387 14.4922 15.5059C14.5898 15.3496 14.6484 15.1445 14.668 14.8906C14.6875 14.6367 14.6973 14.373 14.6973 14.0996C14.6973 13.8066 14.7168 13.5234 14.7559 13.25C14.7949 12.9766 14.873 12.7422 14.9902 12.5469C14.9902 12 15.0391 11.4531 15.1367 10.9062C15.2344 10.3398 15.2832 9.77344 15.2832 9.20703C15.2832 8.93359 15.2539 8.65039 15.1953 8.35742C15 8.2793 14.8242 8.24023 14.668 8.24023C14.4531 8.24023 14.2285 8.28906 13.9941 8.38672C13.7793 8.46484 13.623 8.5918 13.5254 8.76758C13.0957 8.78711 12.6758 8.85547 12.2656 8.97266C11.8555 9.08984 11.4453 9.14844 11.0352 9.14844H10.7422C10.6641 9.14844 10.5762 9.13867 10.4785 9.11914C10.3418 9.17773 10.1953 9.22656 10.0391 9.26562C9.90234 9.30469 9.84375 9.42188 9.86328 9.61719C9.25781 9.67578 8.66211 9.80273 8.07617 9.99805C7.50977 10.1934 6.94336 10.4082 6.37695 10.6426C5.81055 10.8574 5.24414 11.0625 4.67773 11.2578C4.0918 11.4531 3.49609 11.5801 2.89062 11.6387C2.67578 11.7363 2.53906 11.9414 2.48047 12.2539C2.05078 12.2148 1.68945 12.1074 1.39648 11.9316C1.10352 11.7559 0.761719 11.5898 0.371094 11.4336C0.253906 11.0234 0.195312 10.6328 0.195312 10.2617C0.195312 9.77344 0.292969 9.30469 0.488281 8.85547C0.683594 8.40625 0.996094 8.07422 1.42578 7.85938C1.52344 7.87891 1.61133 7.89844 1.68945 7.91797C1.76758 7.91797 1.85547 7.91797 1.95312 7.91797C2.26562 7.91797 2.57812 7.85938 2.89062 7.74219C3.20312 7.625 3.52539 7.56641 3.85742 7.56641C3.95508 7.56641 4.0625 7.5957 4.17969 7.6543C4.31641 7.57617 4.49219 7.51758 4.70703 7.47852C4.90234 7.41992 5.08789 7.37109 5.26367 7.33203C5.45898 7.27344 5.63477 7.19531 5.79102 7.09766C5.94727 7 6.04492 6.86328 6.08398 6.6875C6.18164 6.76562 6.28906 6.81445 6.40625 6.83398C6.52344 6.85352 6.64062 6.86328 6.75781 6.86328C7.01172 6.86328 7.27539 6.81445 7.54883 6.7168C7.82227 6.61914 8.03711 6.46289 8.19336 6.24805C8.33008 6.4043 8.52539 6.48242 8.7793 6.48242C9.05273 6.48242 9.31641 6.41406 9.57031 6.27734C9.84375 6.12109 10.1074 6.04297 10.3613 6.04297C10.5566 6.04297 10.7031 6.11133 10.8008 6.24805C11.0156 6.07227 11.2695 5.93555 11.5625 5.83789C11.8555 5.74023 12.1484 5.65234 12.4414 5.57422C12.7539 5.49609 13.0371 5.4082 13.291 5.31055C13.5645 5.21289 13.7793 5.07617 13.9355 4.90039C14.0332 4.91992 14.1895 4.92969 14.4043 4.92969C14.7363 4.92969 15.0488 4.89062 15.3418 4.8125C15.6543 4.71484 15.9668 4.62695 16.2793 4.54883L16.8945 4.49023C17.0508 4.4707 17.1875 4.42187 17.3047 4.34375C17.4414 4.26563 17.5781 4.19727 17.7148 4.13867C17.8516 4.08008 17.9883 4.03125 18.125 3.99219C18.2812 3.95312 18.4668 3.94336 18.6816 3.96289C19.1504 3.70898 19.6484 3.51367 20.1758 3.37695C20.7031 3.24023 21.2402 3.12305 21.7871 3.02539C22.334 2.9082 22.8711 2.78125 23.3984 2.64453C23.9258 2.48828 24.4238 2.26367 24.8926 1.9707H24.9805C25.3711 1.9707 25.752 1.90234 26.123 1.76562C26.5137 1.62891 26.875 1.44336 27.207 1.20898C27.2656 1.22852 27.3242 1.23828 27.3828 1.23828H27.5879C28.1348 1.23828 28.6621 1.16016 29.1699 1.00391C29.6973 0.847656 30.2441 0.769531 30.8105 0.769531C31.1426 0.769531 31.4062 0.818359 31.6016 0.916016C31.7969 0.994141 31.9727 1.10156 32.1289 1.23828C32.2852 1.35547 32.4512 1.47266 32.627 1.58984C32.8027 1.70703 33.0273 1.79492 33.3008 1.85352C33.4766 2.18555 33.5645 2.54687 33.5645 2.9375C33.5645 3.30859 33.5742 3.68945 33.5938 4.08008ZM45.7602 27.2539C45.682 27.5469 45.5551 27.791 45.3793 27.9863C45.2035 28.1816 44.9984 28.3574 44.7641 28.5137C44.5492 28.6699 44.3148 28.8164 44.0609 28.9531C43.807 29.0703 43.5629 29.207 43.3285 29.3633H42.9477C42.1273 29.3633 41.4926 29.168 41.0434 28.7773C40.6137 28.3672 40.2816 27.8691 40.0473 27.2832C39.8129 26.6777 39.6371 26.0332 39.5199 25.3496C39.4223 24.666 39.2953 24.041 39.1391 23.4746C38.9047 23.6699 38.7094 23.9043 38.5531 24.1777C38.3969 24.4316 38.2309 24.6855 38.0551 24.9395C37.8988 25.1934 37.7133 25.4277 37.4984 25.6426C37.3031 25.8574 37.0395 26.0039 36.7074 26.082C36.6488 26.2188 36.5805 26.3555 36.5023 26.4922C36.4438 26.6289 36.4047 26.7754 36.3852 26.9316C35.9555 27.166 35.5648 27.4395 35.2133 27.752C34.8617 28.0645 34.5102 28.3867 34.1586 28.7188C33.807 29.0508 33.4457 29.373 33.0746 29.6855C32.723 29.9785 32.3227 30.2227 31.8734 30.418C31.8539 30.3984 31.8148 30.3887 31.7563 30.3887C31.5219 30.3887 31.307 30.4473 31.1117 30.5645C30.9164 30.6621 30.7016 30.7109 30.4672 30.7109C30.3109 30.7109 30.1645 30.6816 30.0277 30.623C29.9105 30.5645 29.7836 30.4961 29.6469 30.418C29.5297 30.3398 29.4027 30.2812 29.266 30.2422C29.1293 30.2031 28.9828 30.1934 28.8266 30.2129C28.6313 29.8613 28.3676 29.5391 28.0355 29.2461C27.723 28.9336 27.5277 28.582 27.4496 28.1914C27.4105 28.0156 27.3813 27.8398 27.3617 27.6641C27.3617 27.4688 27.3422 27.2734 27.3031 27.0781C27.2445 26.7852 27.1664 26.4922 27.0688 26.1992C26.9711 25.8867 26.893 25.5742 26.8344 25.2617C26.932 24.7344 27.0297 24.1582 27.1273 23.5332C27.2055 22.8887 27.3031 22.2539 27.4203 21.6289C27.557 20.9844 27.7328 20.3789 27.9477 19.8125C28.182 19.2266 28.475 18.7285 28.8266 18.3184L28.7973 18.1133C28.7973 17.8008 28.8559 17.5078 28.973 17.2344C29.0902 16.9609 29.2172 16.6973 29.3539 16.4434C29.4906 16.1895 29.6078 15.9355 29.7055 15.6816C29.8031 15.4277 29.8227 15.1445 29.7641 14.832C29.9984 14.7148 30.2426 14.6172 30.4965 14.5391C30.7504 14.4609 31.0141 14.4219 31.2875 14.4219C31.5414 14.4219 31.7758 14.4609 31.9906 14.5391C31.9516 14.6953 32.0199 14.793 32.1957 14.832V14.9199C32.1957 15.3301 32.1469 15.7305 32.0492 16.1211C31.9516 16.5117 31.8344 16.9023 31.6977 17.293C31.5609 17.6641 31.4242 18.0449 31.2875 18.4355C31.1703 18.8066 31.0824 19.1875 31.0238 19.5781C30.9457 19.5977 30.8871 19.6367 30.848 19.6953C30.8285 19.7539 30.809 19.8125 30.7895 19.8711C30.7699 19.9297 30.7406 19.9785 30.7016 20.0176C30.6625 20.0566 30.6039 20.0762 30.5258 20.0762C30.4086 20.7598 30.2816 21.4434 30.1449 22.127C30.0277 22.791 29.9691 23.4648 29.9691 24.1484C29.9691 24.5586 30.0082 24.9785 30.0863 25.4082C30.1645 25.8379 30.3109 26.248 30.5258 26.6387L30.643 26.6094C30.8578 26.6094 31.0238 26.6582 31.141 26.7559C31.2777 26.8535 31.4535 26.9512 31.6684 27.0488C31.8246 27.0098 31.9711 26.9609 32.1078 26.9023C32.2445 26.8242 32.3031 26.6973 32.2836 26.5215C32.5375 26.502 32.7523 26.4434 32.9281 26.3457C33.1039 26.2285 33.2602 26.1016 33.3969 25.9648L33.8363 25.5547C33.9926 25.418 34.1781 25.3203 34.393 25.2617C34.393 25.1445 34.4223 25.0566 34.4809 24.998L34.6566 24.8223C34.7152 24.7637 34.7543 24.7051 34.7738 24.6465C34.8129 24.5684 34.8227 24.4609 34.8031 24.3242C35.0375 24.3047 35.2133 24.2461 35.3305 24.1484C35.4672 24.0508 35.5844 23.9434 35.682 23.8262C35.7992 23.6895 35.9066 23.5527 36.0043 23.416C36.102 23.2793 36.2289 23.1621 36.3852 23.0645C36.5219 22.7715 36.7074 22.3809 36.9418 21.8926C37.1957 21.4043 37.4398 20.8965 37.6742 20.3691C37.9281 19.8418 38.143 19.3438 38.3188 18.875C38.5141 18.3867 38.6117 18.0156 38.6117 17.7617C38.6117 17.6641 38.5824 17.5762 38.5238 17.498C38.4848 17.4199 38.475 17.332 38.4945 17.2344V17.1465C38.6508 16.9512 38.7875 16.7363 38.9047 16.502C39.0414 16.2676 39.1781 16.043 39.3148 15.8281C39.4711 15.6133 39.6371 15.418 39.8129 15.2422C39.9887 15.0664 40.2133 14.9297 40.4867 14.832C40.7992 14.9297 41.1117 14.998 41.4242 15.0371C41.7563 15.0762 42.0688 15.1543 42.3617 15.2715C42.3813 15.7598 42.4301 16.3262 42.5082 16.9707C42.5863 17.6152 42.723 18.1621 42.9184 18.6113C42.9184 18.8652 42.9086 19.1094 42.8891 19.3438C42.8891 19.5781 42.8891 19.8125 42.8891 20.0469C42.8891 20.4375 42.8988 20.8379 42.9184 21.248C42.9574 21.6582 43.0258 22.0391 43.1234 22.3906C42.9867 22.6836 42.9184 22.9961 42.9184 23.3281C42.9184 23.7773 42.9867 24.207 43.1234 24.6172C43.2602 25.0078 43.3578 25.4277 43.4164 25.877C43.6703 26.2285 44.0023 26.4043 44.4125 26.4043C44.5102 26.4043 44.5883 26.3945 44.6469 26.375C44.725 26.3555 44.8031 26.3262 44.8813 26.2871C45.0375 26.4629 45.1742 26.6387 45.2914 26.8145C45.4281 26.9707 45.5844 27.1172 45.7602 27.2539ZM87.0477 26.9023C87.0086 27.1953 86.9012 27.4199 86.7254 27.5762C86.5691 27.7324 86.3836 27.8789 86.1688 28.0156C86.0711 27.9961 85.9734 27.9863 85.8758 27.9863C85.7977 27.9668 85.7098 27.957 85.6121 27.957C85.0066 27.9375 84.4305 28.0156 83.8836 28.1914C83.3563 28.3672 82.8094 28.4941 82.243 28.5723C82.0477 28.6113 81.8621 28.6309 81.6863 28.6309C81.5301 28.6113 81.3641 28.6211 81.1883 28.6602C80.5633 28.7578 79.8992 28.8359 79.1961 28.8945C78.493 28.9531 77.7898 29.0312 77.0867 29.1289C76.3836 29.207 75.6902 29.3145 75.0066 29.4512C74.3426 29.5684 73.7176 29.7441 73.1316 29.9785C73.073 29.9395 73.0145 29.9004 72.9559 29.8613C72.8973 29.8027 72.8289 29.7734 72.7508 29.7734C72.5555 29.7734 72.3699 29.8027 72.1941 29.8613C72.0184 29.9199 71.8426 29.9395 71.6668 29.9199C71.4715 30.0371 71.2566 30.125 71.0223 30.1836C70.8074 30.2227 70.5828 30.2617 70.3484 30.3008C70.1336 30.3203 69.9188 30.3594 69.7039 30.418C69.4891 30.4766 69.284 30.584 69.0887 30.7402C68.9324 30.6621 68.7371 30.623 68.5027 30.623C68.2879 30.6035 68.1414 30.5254 68.0633 30.3887C67.6141 30.6035 67.1355 30.7402 66.6277 30.7988C66.1395 30.8574 65.6414 30.877 65.1336 30.8574C64.8016 30.8379 64.4207 30.7891 63.991 30.7109C63.5613 30.6328 63.1316 30.5254 62.702 30.3887C62.2723 30.2324 61.8719 30.0566 61.5008 29.8613C61.1297 29.6465 60.8465 29.3926 60.6512 29.0996C60.5145 28.9043 60.4168 28.6895 60.3582 28.4551C60.2996 28.2207 60.1629 28.0449 59.948 27.9277C60.0066 27.4785 60.075 27.0391 60.1531 26.6094C60.2313 26.1797 60.3094 25.7402 60.3875 25.291C60.7781 24.959 61.1492 24.6074 61.5008 24.2363C61.8523 23.8652 62.1844 23.4746 62.4969 23.0645C62.868 22.8887 63.2098 22.6738 63.5223 22.4199C63.8543 22.166 64.1766 21.9121 64.4891 21.6582C64.8211 21.3848 65.1434 21.1211 65.4559 20.8672C65.7879 20.6133 66.1395 20.3887 66.5105 20.1934C66.5691 20.0566 66.6473 19.9492 66.7449 19.8711C66.8621 19.7734 66.9793 19.6855 67.0965 19.6074C67.2137 19.5098 67.3211 19.4121 67.4188 19.3145C67.5164 19.1973 67.5848 19.0605 67.6238 18.9043C68.3074 18.4941 68.9031 17.9766 69.4109 17.3516C69.9188 16.7266 70.2508 16.0234 70.407 15.2422C70.075 14.9687 69.6941 14.793 69.2645 14.7148C68.8543 14.6172 68.4246 14.5488 67.9754 14.5098C67.5848 14.4902 67.1746 14.4902 66.7449 14.5098C66.3348 14.5293 65.9148 14.5195 65.4852 14.4805C65.0555 14.6172 64.6063 14.7051 64.1375 14.7441C63.6883 14.7832 63.2391 14.8223 62.7898 14.8613C62.3406 14.8809 61.8914 14.9395 61.4422 15.0371C61.0125 15.1152 60.5926 15.2715 60.1824 15.5059C60.1043 15.5059 60.0262 15.4961 59.948 15.4766C59.8895 15.457 59.8211 15.4473 59.743 15.4473C59.118 15.4277 58.532 15.5547 57.9852 15.8281C57.4383 16.082 56.9012 16.3359 56.3738 16.5898C56.3348 16.668 56.3152 16.7266 56.3152 16.7656C56.3152 16.8828 56.3348 17 56.3738 17.1172C56.4324 17.2148 56.4617 17.3223 56.4617 17.4395C56.4422 17.459 56.4324 17.4785 56.4324 17.498C56.4324 17.5176 56.4227 17.5371 56.4031 17.5566C56.3836 17.6543 56.3543 17.7422 56.3152 17.8203C56.2957 17.8984 56.2664 17.9863 56.2273 18.084C56.0125 18.709 55.8953 19.3242 55.8758 19.9297C55.8563 20.4375 55.8563 20.9355 55.8758 21.4238C55.8953 21.9121 55.8953 22.4102 55.8758 22.918C55.8367 23.543 55.7391 24.1289 55.5828 24.6758C55.6805 25.1445 55.7684 25.6426 55.8465 26.1699C55.9246 26.6777 56.0223 27.1855 56.1395 27.6934C56.2566 28.2012 56.3934 28.6992 56.5496 29.1875C56.7254 29.6562 56.95 30.1055 57.2234 30.5352C57.2039 30.5742 57.2137 30.6035 57.2527 30.623C57.2918 30.6426 57.3309 30.6523 57.3699 30.6523H57.6043C57.702 30.6523 57.741 30.6914 57.7215 30.7695C57.7605 30.8281 57.7898 30.8867 57.8094 30.9453C57.8289 30.9844 57.868 31.0234 57.9266 31.0625C57.9656 31.1211 57.9656 31.1992 57.9266 31.2969C57.907 31.6875 57.8094 32.0488 57.6336 32.3809C57.4578 32.7129 57.3504 33.0742 57.3113 33.4648C57.077 33.5234 56.8621 33.5527 56.6668 33.5527C56.3348 33.5332 56.0418 33.4355 55.7879 33.2598C55.534 33.1035 55.2996 32.9082 55.0848 32.6738C54.8699 32.4395 54.6648 32.2051 54.4695 31.9707C54.2742 31.7168 54.0594 31.502 53.825 31.3262C53.6883 30.7793 53.5516 30.1738 53.4148 29.5098C53.2977 28.8457 53.0926 28.2793 52.7996 27.8105C52.8777 27.6348 52.9168 27.4199 52.9168 27.166C52.9363 26.7754 52.8973 26.3945 52.7996 26.0234C52.7215 25.6328 52.702 25.2422 52.741 24.8516C52.741 24.6367 52.7605 24.4219 52.7996 24.207C52.8582 23.9922 52.8973 23.7773 52.9168 23.5625C52.9363 23.2305 52.8973 22.9082 52.7996 22.5957C52.7215 22.2832 52.6922 21.9609 52.7117 21.6289C52.7313 21.4727 52.7605 21.3262 52.7996 21.1895C52.8582 21.0332 52.9363 20.8965 53.034 20.7793C52.9363 20.5449 52.907 20.3203 52.9461 20.1055C52.9656 19.7734 53.0047 19.4609 53.0633 19.168C53.1219 18.875 53.1609 18.582 53.1805 18.2891C53.1805 18.1328 53.1707 17.9863 53.1512 17.8496C53.1316 17.6934 53.1023 17.5469 53.0633 17.4102L52.7996 17.3223C52.6824 17.3223 52.5652 17.3516 52.448 17.4102C52.3504 17.4688 52.2625 17.5371 52.1844 17.6152C52.1063 17.6934 52.0379 17.7617 51.9793 17.8203C51.9207 17.8594 51.8621 17.8789 51.8035 17.8789C51.7645 17.8789 51.7156 17.8789 51.657 17.8789C51.618 17.8594 51.5789 17.8496 51.5398 17.8496C51.5008 17.8496 51.4227 17.8887 51.3055 17.9668C51.2078 18.0449 51.0809 18.1328 50.9246 18.2305C50.7879 18.3086 50.6512 18.3965 50.5145 18.4941C50.3777 18.5723 50.2703 18.6211 50.1922 18.6406C49.9773 18.6016 49.8016 18.5332 49.6648 18.4355C49.5477 18.3184 49.4305 18.2109 49.3133 18.1133C49.2156 17.9961 49.1082 17.8984 48.991 17.8203C48.8738 17.7227 48.7273 17.6836 48.5516 17.7031C48.493 17.5859 48.4637 17.459 48.4637 17.3223C48.4441 17.1855 48.4441 17.0488 48.4637 16.9121V16.4434C48.6004 16.1895 48.7859 15.9844 49.0203 15.8281C49.2352 15.6523 49.4695 15.5059 49.7234 15.3887L50.4852 15.0371C50.7391 14.9199 50.9734 14.7734 51.1883 14.5977H51.452C51.8035 14.6172 52.1063 14.5488 52.3602 14.3926C52.6336 14.2363 52.8875 14.0605 53.1219 13.8652C53.3563 13.6504 53.5906 13.4355 53.825 13.2207C54.0789 13.0059 54.3523 12.8398 54.6453 12.7227C54.8602 12.8203 55.0848 12.9082 55.3191 12.9863C55.5535 13.0449 55.7977 13.084 56.0516 13.1035C56.3055 13.1035 56.5691 13.0645 56.8426 12.9863C57.116 12.9082 57.3309 12.7617 57.4871 12.5469C57.5848 12.5859 57.6629 12.6152 57.7215 12.6348C57.7996 12.6348 57.8875 12.6348 57.9852 12.6348C58.2781 12.6543 58.5711 12.6152 58.8641 12.5176C59.157 12.4004 59.4402 12.2637 59.7137 12.1074C60.1043 12.127 60.4852 12.1074 60.8563 12.0488C61.2469 11.9707 61.6277 11.8926 61.9988 11.8145C62.3895 11.7363 62.7703 11.668 63.1414 11.6094C63.532 11.5312 63.9227 11.502 64.3133 11.5215C64.9578 11.541 65.5926 11.4824 66.2176 11.3457C66.8426 11.209 67.4773 11.1602 68.1219 11.1992C68.5711 11.2188 69.0105 11.2578 69.4402 11.3164C69.8895 11.3555 70.3387 11.3652 70.7879 11.3457C71.0418 11.4629 71.2664 11.5703 71.4617 11.668C71.6766 11.7461 71.9402 11.7656 72.2527 11.7266C72.8777 12.2539 73.4441 12.8691 73.952 13.5723V14.0703C73.9324 14.5195 73.8543 14.959 73.7176 15.3887C73.5809 15.8184 73.4148 16.248 73.2195 16.6777C73.0438 17.0879 72.8484 17.498 72.6336 17.9082C72.4188 18.2988 72.2137 18.6895 72.0184 19.0801C70.7488 20.2324 69.4793 21.375 68.2098 22.5078C66.9402 23.6406 65.6316 24.7344 64.284 25.7891C64.2449 25.9844 64.1863 26.1602 64.1082 26.3164C64.0496 26.4727 64.0105 26.6387 63.991 26.8145C63.991 26.9121 64.0008 26.9902 64.0203 27.0488C64.157 27.0879 64.2742 27.166 64.3719 27.2832C64.4891 27.3809 64.5281 27.5176 64.4891 27.6934H64.7527C64.8504 27.6934 64.8992 27.7324 64.8992 27.8105L65.368 27.8398C66.1102 27.8789 66.8523 27.8594 67.5945 27.7812C68.3367 27.7031 69.0789 27.6152 69.8211 27.5176C70.5828 27.4199 71.3348 27.332 72.077 27.2539C72.8191 27.1562 73.5613 27.0977 74.3035 27.0781C74.4793 27.0195 74.6648 26.9707 74.8602 26.9316C75.0555 26.8926 75.2313 26.8145 75.3875 26.6973H75.4754C75.6121 26.6973 75.7098 26.7363 75.7684 26.8145C75.8465 26.8926 75.9539 26.9414 76.0906 26.9609C76.1883 26.9609 76.2859 26.9414 76.3836 26.9023C76.5008 26.8633 76.618 26.834 76.7352 26.8145C77.0086 26.7363 77.2918 26.6875 77.5848 26.668C77.8973 26.6484 78.2 26.6191 78.493 26.5801C79.6258 26.4824 80.7488 26.4238 81.8621 26.4043C82.9754 26.3652 84.0887 26.2188 85.202 25.9648C85.2996 26.1016 85.4363 26.1992 85.6121 26.2578C85.7879 26.2969 85.9734 26.3457 86.1688 26.4043C86.3641 26.4434 86.5398 26.4922 86.6961 26.5508C86.8719 26.6094 86.9891 26.7266 87.0477 26.9023ZM87.9055 27.9863C87.8078 28.1426 87.6906 28.2891 87.5539 28.4258C87.4172 28.543 87.2902 28.6699 87.173 28.8066C87.0363 28.8652 86.8801 28.8945 86.7043 28.8945C86.548 28.8945 86.3918 28.8945 86.2355 28.8945C86.0988 28.875 85.9621 28.875 85.8254 28.8945C85.7082 28.8945 85.6105 28.9336 85.5324 29.0117C85.3762 28.9727 85.259 28.9043 85.1809 28.8066C85.1027 28.6895 84.966 28.6211 84.7707 28.6016C84.6926 28.582 84.6145 28.582 84.5363 28.6016C84.2434 28.2695 83.9699 27.918 83.716 27.5469C83.4816 27.1758 83.257 26.8242 83.0422 26.4922C83.0227 25.7695 82.9641 25.0371 82.8664 24.2949C82.8469 24.1191 82.8176 23.9434 82.7785 23.7676C82.7395 23.5918 82.7102 23.4258 82.6906 23.2695C82.6906 23.0742 82.7004 22.8887 82.7199 22.7129C82.759 22.5176 82.7883 22.3418 82.8078 22.1855C82.8859 21.6191 82.9738 21.0625 83.0715 20.5156C83.1691 19.9688 83.257 19.4121 83.3352 18.8457C83.4133 18.3379 83.4523 17.8105 83.4523 17.2637C83.4523 16.6973 83.3645 16.1699 83.1887 15.6816L83.1594 15.5352C83.1984 15.3789 83.2375 15.252 83.2766 15.1543C83.3352 15.0371 83.3742 14.9102 83.3938 14.7734C83.4328 14.5586 83.384 14.4023 83.2473 14.3047C83.3059 14.1484 83.4035 14.0508 83.5402 14.0117C83.677 13.9531 83.7551 13.8359 83.7746 13.6602C83.7941 13.582 83.7941 13.5039 83.7746 13.4258C83.9309 13.3672 84.0871 13.3184 84.2434 13.2793C84.4191 13.2207 84.5852 13.2109 84.7414 13.25C84.9953 13.2891 85.2199 13.377 85.4152 13.5137C85.6105 13.6309 85.7961 13.7676 85.9719 13.9238C86.2844 14.8613 86.4113 15.8574 86.3527 16.9121C86.2941 17.9473 86.1965 18.9922 86.0598 20.0469C85.923 21.1016 85.8352 22.1367 85.7961 23.1523C85.757 24.1484 85.9133 25.0762 86.2648 25.9355L86.3234 25.9648C86.4211 25.9844 86.4992 25.9551 86.5578 25.877C86.6164 25.7793 86.6945 25.7402 86.7922 25.7598C86.8703 25.7988 86.9191 25.8184 86.9387 25.8184C87.0168 26.209 87.1438 26.5801 87.3195 26.9316C87.4953 27.2832 87.6906 27.6348 87.9055 27.9863ZM122.367 25.291C122.367 25.6816 122.298 26.0039 122.162 26.2578C122.045 26.4922 121.908 26.7656 121.752 27.0781C121.713 27.0586 121.664 27.0488 121.605 27.0488C121.488 27.0488 121.38 27.0781 121.283 27.1367C121.185 27.1953 121.088 27.2441 120.99 27.2832C120.423 27.9082 119.838 28.5137 119.232 29.0996C118.646 29.6855 117.992 30.2031 117.269 30.6523C117.074 30.7695 116.879 30.8867 116.683 31.0039C116.488 31.1016 116.283 31.1992 116.068 31.2969C115.99 31.3359 115.912 31.375 115.834 31.4141C115.775 31.4336 115.716 31.4629 115.658 31.502C115.521 31.5801 115.375 31.707 115.218 31.8828C115.082 32.0586 114.916 32.2344 114.72 32.4102C114.545 32.6055 114.349 32.7617 114.134 32.8789C113.92 33.0156 113.685 33.0742 113.431 33.0547C113.275 33.1523 113.138 33.2793 113.021 33.4355C112.904 33.5918 112.767 33.748 112.611 33.9043C111.771 34.1973 111 34.5781 110.296 35.0469C109.613 35.5352 108.9 36.0039 108.158 36.4531C107.709 36.7461 107.259 36.9805 106.81 37.1562C106.713 37.1953 106.595 37.2246 106.459 37.2441C106.341 37.2637 106.214 37.293 106.078 37.332C105.433 37.4883 104.779 37.6152 104.115 37.7129C103.47 37.8105 102.816 37.8594 102.152 37.8594C101.332 37.8594 100.541 37.7617 99.7789 37.5664C99.7789 37.5078 99.7594 37.4688 99.7203 37.4492C99.6813 37.4297 99.6324 37.4102 99.5738 37.3906C99.5348 37.3711 99.4957 37.3418 99.4566 37.3027C99.4176 37.2832 99.4176 37.2344 99.4566 37.1562C99.027 37.1172 98.6461 37.0098 98.3141 36.834C98.0016 36.6582 97.7965 36.3457 97.6988 35.8965C97.6402 35.9355 97.5914 35.9844 97.5523 36.043C97.5133 36.1016 97.4449 36.1211 97.3473 36.1016C97.0738 35.7109 96.7711 35.3496 96.4391 35.0176C96.107 34.6855 95.8629 34.2852 95.7066 33.8164C95.6676 33.7188 95.6383 33.6211 95.6188 33.5234C95.6188 33.4453 95.609 33.3574 95.5895 33.2598C95.4918 32.9863 95.316 32.8496 95.0621 32.8496C95.1012 32.7715 95.1207 32.6738 95.1207 32.5566C95.1207 32.498 95.1109 32.4395 95.0914 32.3809C95.0914 32.3223 95.0914 32.2637 95.0914 32.2051C95.0914 32.1074 95.1207 32.0098 95.1793 31.9121C94.984 31.4629 94.8473 31.0234 94.7691 30.5938C94.691 30.1445 94.652 29.6855 94.652 29.2168C94.652 28.6113 94.6813 28.0156 94.7398 27.4297C94.7984 26.8242 94.8277 26.2188 94.8277 25.6133C94.9449 25.3789 95.0328 25.1055 95.0914 24.793C95.1695 24.4805 95.2965 24.2266 95.4723 24.0312C95.4527 23.9141 95.4137 23.8555 95.3551 23.8555C95.2965 23.8359 95.2672 23.7773 95.2672 23.6797C95.2672 23.3281 95.3355 22.9473 95.4723 22.5371C95.609 22.127 95.6773 21.707 95.6773 21.2773C95.8531 21.1797 95.9605 21.0332 95.9996 20.8379C96.0582 20.6426 96.1656 20.4863 96.3219 20.3691V20.2227C96.3219 19.9297 96.3512 19.6367 96.4098 19.3438C96.4879 19.0508 96.5563 18.7676 96.6148 18.4941C96.693 18.2012 96.7516 17.918 96.7906 17.6445C96.8492 17.3516 96.8688 17.0684 96.8492 16.7949C96.8883 16.7363 96.9371 16.6289 96.9957 16.4727C97.0738 16.2969 97.1422 16.1211 97.2008 15.9453C97.2789 15.75 97.3375 15.5645 97.3766 15.3887C97.4352 15.2129 97.4645 15.0859 97.4645 15.0078C97.4645 14.8906 97.4449 14.7832 97.4059 14.6855C97.3668 14.5879 97.3473 14.4805 97.3473 14.3633C97.3473 14.2656 97.3766 14.1289 97.4352 13.9531C97.4938 13.7578 97.5426 13.6016 97.5816 13.4844C97.6598 13.1523 97.7281 12.8105 97.7867 12.459C97.8648 12.0879 97.9332 11.7363 97.9918 11.4043C98.1676 10.3301 98.2945 9.25586 98.3727 8.18164C98.4508 7.08789 98.4996 5.99414 98.5191 4.90039C98.7926 4.74414 99.0758 4.59766 99.3688 4.46094C99.6813 4.32422 100.004 4.25586 100.336 4.25586C100.433 4.25586 100.531 4.26563 100.629 4.28516C100.726 4.30469 100.824 4.33398 100.921 4.37305C101.019 4.76367 101.175 5.07617 101.39 5.31055C101.605 5.54492 101.8 5.82812 101.976 6.16016C101.859 6.47266 101.781 6.79492 101.742 7.12695L101.654 8.12305C101.634 8.45508 101.595 8.78711 101.537 9.11914C101.478 9.43164 101.38 9.73438 101.244 10.0273C101.283 10.125 101.302 10.2227 101.302 10.3203V10.6133C101.302 10.8867 101.273 11.1504 101.214 11.4043C101.175 11.6582 101.127 11.9219 101.068 12.1953C101.009 12.4492 100.961 12.7031 100.921 12.957C100.882 13.2109 100.882 13.4648 100.921 13.7188C100.863 13.8164 100.804 13.8945 100.746 13.9531C100.687 13.9922 100.648 14.0605 100.629 14.1582L100.57 14.7148C100.531 14.9297 100.492 15.1445 100.453 15.3594C100.433 15.5547 100.404 15.7598 100.365 15.9746C100.228 16.5605 100.072 17.1465 99.8961 17.7324C99.7398 18.3184 99.6617 18.9238 99.6617 19.5488V19.7246C99.4859 19.998 99.3492 20.3398 99.2516 20.75C99.1539 21.1406 99.1246 21.502 99.1637 21.834C98.9488 22.4004 98.7438 22.957 98.5484 23.5039C98.3531 24.0508 98.2555 24.6172 98.2555 25.2031C98.2555 25.3008 98.2555 25.4082 98.2555 25.5254C98.275 25.623 98.2945 25.7207 98.3141 25.8184C98.1578 26.209 98.0602 26.6094 98.0211 27.0195C97.982 27.4102 97.9625 27.8008 97.9625 28.1914C97.9625 28.4648 97.9723 28.7871 97.9918 29.1582C98.0309 29.5098 98.0797 29.8809 98.1383 30.2715C98.2164 30.6426 98.3043 31.0039 98.402 31.3555C98.4996 31.707 98.607 31.9902 98.7242 32.2051C99.1734 32.9277 99.7594 33.4941 100.482 33.9043C101.224 34.334 102.005 34.6074 102.826 34.7246C103.158 34.6074 103.421 34.5391 103.617 34.5195C103.832 34.5 104.125 34.5 104.496 34.5195C104.808 34.3633 105.121 34.2461 105.433 34.168C105.765 34.0898 106.097 34.002 106.429 33.9043C106.527 33.8652 106.625 33.8262 106.722 33.7871C106.839 33.748 106.937 33.709 107.015 33.6699C107.113 33.6309 107.22 33.543 107.338 33.4062C107.455 33.2695 107.562 33.1523 107.66 33.0547C108.07 32.9375 108.461 32.7715 108.832 32.5566C109.203 32.3613 109.564 32.1562 109.916 31.9414L111 31.2969C111.371 31.082 111.761 30.8965 112.171 30.7402C112.328 30.6816 112.416 30.6035 112.435 30.5059C112.474 30.3887 112.533 30.252 112.611 30.0957C112.65 30.1348 112.709 30.1543 112.787 30.1543C113.021 30.1543 113.187 30.0859 113.285 29.9492C113.382 29.793 113.5 29.6367 113.636 29.4805C113.89 29.4414 114.134 29.373 114.369 29.2754C114.603 29.1582 114.779 28.9824 114.896 28.748C115.384 28.6504 115.814 28.4746 116.185 28.2207C116.556 27.9668 116.918 27.6934 117.269 27.4004C117.621 27.0879 117.972 26.7949 118.324 26.5215C118.675 26.2285 119.076 25.9941 119.525 25.8184C119.584 25.7207 119.623 25.6328 119.642 25.5547C119.662 25.4766 119.691 25.3887 119.73 25.291C120.062 25.252 120.326 25.1641 120.521 25.0273C120.716 24.8711 120.941 24.7148 121.195 24.5586C121.742 24.6172 122.132 24.8613 122.367 25.291ZM140.861 15.0371C140.744 15.2129 140.676 15.4082 140.656 15.623C140.637 15.8379 140.627 16.0332 140.627 16.209C140.627 16.4434 140.627 16.6777 140.627 16.9121C140.646 17.127 140.656 17.3418 140.656 17.5566V17.9961C140.617 18.1328 140.559 18.2695 140.48 18.4062C140.402 18.543 140.344 18.6797 140.305 18.8164C140.031 19.5391 139.895 20.2617 139.895 20.9844V21.043C139.797 21.2773 139.699 21.4922 139.602 21.6875C139.523 21.8828 139.445 22.0781 139.367 22.2734C139.289 22.4492 139.23 22.6445 139.191 22.8594C139.152 23.0547 139.143 23.2891 139.162 23.5625C138.889 24.2461 138.527 24.8711 138.078 25.4375C137.629 25.9844 137.189 26.5508 136.76 27.1367C136.35 27.293 135.969 27.498 135.617 27.752C135.285 28.0059 134.963 28.2891 134.65 28.6016C134.045 28.7969 133.449 29.0215 132.863 29.2754C132.277 29.5293 131.75 29.8711 131.281 30.3008C130.91 30.3398 130.539 30.3984 130.168 30.4766C129.797 30.5547 129.436 30.6719 129.084 30.8281H128.732C128.557 30.8281 128.43 30.7891 128.352 30.7109C128.098 30.8477 127.834 30.9453 127.561 31.0039C127.287 31.043 127.014 31.0625 126.74 31.0625C126.389 31.0625 126.037 31.043 125.686 31.0039C125.354 30.9453 125.012 30.8867 124.66 30.8281C124.465 30.5547 124.191 30.3496 123.84 30.2129C123.488 30.0566 123.176 29.9102 122.902 29.7734C122.336 28.9922 121.926 28.2402 121.672 27.5176C121.418 26.7754 121.154 25.9453 120.881 25.0273C120.92 24.7539 120.988 24.4902 121.086 24.2363C121.184 23.9629 121.223 23.6699 121.203 23.3574C121.555 22.3418 122.014 21.4238 122.58 20.6035C123.166 19.7637 123.83 18.9629 124.572 18.2012C124.572 18.084 124.592 17.9863 124.631 17.9082C124.689 17.8301 124.699 17.7129 124.66 17.5566C124.68 17.5762 124.719 17.5859 124.777 17.5859C124.934 17.5859 125.031 17.5469 125.07 17.4688C125.109 17.3711 125.119 17.2637 125.1 17.1465C125.803 16.6973 126.438 16.1797 127.004 15.5938C127.59 15.0078 128.254 14.5195 128.996 14.1289C129.055 13.9531 129.152 13.8066 129.289 13.6895C129.426 13.5723 129.533 13.4355 129.611 13.2793C130.236 13.1035 130.803 12.8398 131.311 12.4883C131.818 12.1367 132.355 11.8242 132.922 11.5508C133.234 11.375 133.527 11.2578 133.801 11.1992C134.094 11.1211 134.406 11.043 134.738 10.9648C134.855 10.9258 134.963 10.8965 135.061 10.877C135.158 10.8574 135.266 10.8477 135.383 10.8477C135.734 10.8477 136.076 10.916 136.408 11.0527C136.74 11.1699 137.082 11.2285 137.434 11.2285C137.531 11.2285 137.609 11.2285 137.668 11.2285C137.746 11.209 137.824 11.1895 137.902 11.1699C138.234 11.5801 138.654 11.8926 139.162 12.1074C139.279 12.4004 139.416 12.6543 139.572 12.8691C139.748 13.084 139.924 13.2988 140.1 13.5137C140.275 13.709 140.432 13.9336 140.568 14.1875C140.725 14.4219 140.822 14.7051 140.861 15.0371ZM137.932 16.5605C137.932 16.4629 137.922 16.375 137.902 16.2969C137.707 16.2383 137.521 16.1602 137.346 16.0625C137.17 15.9648 136.975 15.916 136.76 15.916C136.623 15.916 136.486 15.9453 136.35 16.0039C136.33 15.8672 136.271 15.7695 136.174 15.7109C136.096 15.6523 135.998 15.6035 135.881 15.5645C135.783 15.5059 135.676 15.4668 135.559 15.4473C135.461 15.4082 135.373 15.3496 135.295 15.2715C135.236 15.1152 135.168 14.959 135.09 14.8027C135.031 14.627 134.914 14.5 134.738 14.4219C134.562 14.5977 134.357 14.7441 134.123 14.8613C133.889 14.959 133.645 15.0566 133.391 15.1543C133.156 15.252 132.922 15.3691 132.688 15.5059C132.473 15.6426 132.287 15.8086 132.131 16.0039H131.604C131.486 16.2188 131.32 16.3848 131.105 16.502C130.891 16.5996 130.705 16.7461 130.549 16.9414C130.236 17.0977 129.943 17.293 129.67 17.5273C129.416 17.7422 129.162 17.9766 128.908 18.2305C128.654 18.4648 128.4 18.709 128.146 18.9629C127.912 19.2168 127.658 19.4512 127.385 19.666C127.131 20.2129 126.848 20.6914 126.535 21.1016C126.242 21.4922 125.959 21.8926 125.686 22.3027C125.432 22.7129 125.207 23.1621 125.012 23.6504C124.836 24.1191 124.748 24.7051 124.748 25.4082V25.7012C124.748 25.7988 124.758 25.8965 124.777 25.9941C125.031 26.2676 125.236 26.5605 125.393 26.873C125.568 27.1855 125.852 27.4102 126.242 27.5469C126.633 27.7031 127.043 27.7715 127.473 27.752C127.922 27.7324 128.352 27.7812 128.762 27.8984C129.699 27.7227 130.598 27.4395 131.457 27.0488C132.336 26.6387 133.166 26.1504 133.947 25.584C134.064 25.4863 134.201 25.3887 134.357 25.291C134.514 25.1738 134.641 25.0566 134.738 24.9395C134.836 24.8418 134.914 24.7344 134.973 24.6172C135.051 24.5 135.129 24.3926 135.207 24.2949C135.363 24.041 135.539 23.7871 135.734 23.5332C135.93 23.2793 136.135 23.0449 136.35 22.8301C136.447 22.4004 136.574 21.9902 136.73 21.5996C136.887 21.1895 137.043 20.7891 137.199 20.3984C137.355 20.0078 137.482 19.6074 137.58 19.1973C137.697 18.7871 137.756 18.3574 137.756 17.9082C137.756 17.8105 137.746 17.7031 137.727 17.5859C137.727 17.4688 137.717 17.3613 137.697 17.2637C137.854 17.0488 137.932 16.8145 137.932 16.5605ZM153.057 7.44922C153.057 7.85938 153.028 8.2793 152.969 8.70898C152.911 9.11914 152.881 9.51953 152.881 9.91016V10.3203C152.881 10.4375 152.901 10.5547 152.94 10.6719C152.745 11.4336 152.598 12.2051 152.5 12.9863C152.403 13.748 152.276 14.5293 152.12 15.3301C152.022 15.8574 151.905 16.3848 151.768 16.9121C151.729 17.0488 151.68 17.1855 151.621 17.3223C151.582 17.459 151.543 17.5957 151.504 17.7324C151.465 17.8887 151.426 18.0547 151.387 18.2305C151.368 18.4062 151.338 18.5723 151.299 18.7285C151.202 19.0605 151.104 19.3926 151.006 19.7246C150.909 20.0371 150.811 20.3594 150.713 20.6914C150.538 21.2773 150.342 21.8633 150.127 22.4492C149.932 23.0352 149.746 23.6211 149.571 24.207C149.395 24.793 149.248 25.3887 149.131 25.9941C149.014 26.5996 148.955 27.2051 148.955 27.8105C148.955 27.9082 149.004 28.0059 149.102 28.1035C149.219 28.1816 149.346 28.2598 149.483 28.3379C149.62 28.416 149.756 28.4941 149.893 28.5723C150.049 28.6309 150.157 28.6895 150.215 28.748V29.0117C150.215 29.3047 150.157 29.5391 150.039 29.7148C149.922 29.8711 149.786 30.0078 149.629 30.125C149.473 30.2422 149.307 30.3594 149.131 30.4766C148.975 30.5938 148.848 30.75 148.75 30.9453C148.692 30.9258 148.623 30.9062 148.545 30.8867C148.467 30.8672 148.389 30.8574 148.311 30.8574C148.116 30.8574 147.92 30.9062 147.725 31.0039C147.549 31.1016 147.354 31.1504 147.139 31.1504C146.924 31.1504 146.748 31.0625 146.612 30.8867C146.475 30.6914 146.309 30.5449 146.114 30.4473C146.094 29.9395 146.006 29.4512 145.85 28.9824C145.713 28.4941 145.645 27.9961 145.645 27.4883C145.645 27.0781 145.674 26.7852 145.733 26.6094C145.811 26.4336 145.938 26.1699 146.114 25.8184C146.114 25.7598 146.104 25.7012 146.084 25.6426C146.084 25.584 146.084 25.5254 146.084 25.4668C146.084 25.1738 146.123 24.9004 146.202 24.6465C146.299 24.373 146.338 24.0898 146.319 23.7969C146.553 23.3672 146.739 22.9082 146.875 22.4199C147.032 21.9316 147.178 21.4434 147.315 20.9551C147.452 20.4473 147.598 19.959 147.754 19.4902C147.911 19.002 148.125 18.5527 148.399 18.1426C148.418 17.8301 148.477 17.5371 148.575 17.2637C148.672 16.9902 148.721 16.707 148.721 16.4141C148.721 16.2383 148.692 16.0723 148.633 15.916C148.848 15.6621 148.975 15.3301 149.014 14.9199C149.053 14.5098 149.063 14.1387 149.043 13.8066C149.141 13.5918 149.209 13.377 149.248 13.1621C149.307 12.9277 149.375 12.6934 149.454 12.459C149.454 12.3809 149.444 12.3027 149.424 12.2246C149.424 12.1465 149.424 12.0684 149.424 11.9902C149.424 11.541 149.473 11.1016 149.571 10.6719C149.688 10.2422 149.746 9.80273 149.746 9.35352C149.746 8.76758 149.58 8.29883 149.248 7.94727C149.229 7.86914 149.219 7.79102 149.219 7.71289V7.44922C149.219 7.09766 149.278 6.76562 149.395 6.45312C149.532 6.12109 149.59 5.7793 149.571 5.42773C149.766 5.33008 149.952 5.24219 150.127 5.16406C150.323 5.08594 150.528 5.04688 150.743 5.04688C151.211 5.04688 151.621 5.21289 151.973 5.54492C152.325 5.87695 152.647 6.18945 152.94 6.48242C153.018 6.77539 153.057 7.09766 153.057 7.44922ZM151.182 39.9688C151.182 40.0664 151.172 40.1543 151.153 40.2324C151.133 40.3301 151.104 40.4277 151.065 40.5254C150.791 40.623 150.518 40.6914 150.245 40.7305C149.991 40.7891 149.727 40.8574 149.454 40.9355C149.297 41.1113 149.151 41.2969 149.014 41.4922C148.897 41.707 148.692 41.8438 148.399 41.9023C147.989 41.7656 147.657 41.5117 147.403 41.1406C147.168 40.7695 147.051 40.3594 147.051 39.9102C147.051 39.5195 147.12 39.2168 147.256 39.002C147.393 38.8066 147.549 38.6406 147.725 38.5039C147.901 38.3867 148.057 38.2598 148.194 38.123C148.33 37.9863 148.399 37.8008 148.399 37.5664C148.496 37.5469 148.614 37.5371 148.75 37.5371C149.024 37.5371 149.239 37.6348 149.395 37.8301C149.551 38.0449 149.717 38.2402 149.893 38.416C150.01 38.5332 150.137 38.6406 150.274 38.7383C150.43 38.8555 150.567 38.9727 150.684 39.0898C150.821 39.2266 150.938 39.3633 151.036 39.5C151.133 39.6367 151.182 39.793 151.182 39.9688Z" fill="#14183E"/>
</svg>
