<svg width="220" height="61" viewBox="0 0 220 61" fill="none" xmlns="http://www.w3.org/2000/svg">
<path d="M34.2463 20.2514C34.9472 20.2514 35.4501 20.4038 35.7548 20.7086C36.0901 21.0133 36.2577 21.4095 36.2577 21.8971C36.2577 22.6895 36.0139 23.3905 35.5263 24C35.0691 24.6095 34.3377 24.9295 33.332 24.96C30.8939 25.021 28.7301 24.8381 26.8405 24.4114C24.6767 28.9524 22.0558 32.7314 18.9777 35.7486C15.9301 38.7352 12.8672 40.2286 9.78912 40.2286C6.61959 40.2286 4.25769 38.3848 2.7034 34.6971C1.14911 31.0095 0.371972 26.0267 0.371972 19.7486C0.371972 14.3848 0.752924 9.56952 1.51483 5.30286C1.78911 3.71809 2.17007 2.65143 2.65769 2.10286C3.17578 1.52381 4.04435 1.23429 5.2634 1.23429C7.27483 1.23429 8.28054 2.10286 8.28054 3.84C8.28054 4.02286 8.25007 4.3581 8.18911 4.84571C7.27483 10.3314 6.81769 15.299 6.81769 19.7486C6.81769 24.4114 7.19864 27.9619 7.96054 30.4C8.75292 32.8076 9.92626 34.0114 11.4805 34.0114C13.0653 34.0114 14.7872 32.9143 16.6463 30.72C18.5053 28.5257 20.212 25.7676 21.7663 22.4457C19.9072 21.2876 18.5053 19.7943 17.5605 17.9657C16.6158 16.1067 16.1434 13.9733 16.1434 11.5657C16.1434 9.1581 16.5091 7.13143 17.2405 5.48571C18.0024 3.80952 19.0234 2.56 20.3034 1.73714C21.6139 0.914287 23.0615 0.502858 24.6463 0.502858C26.5967 0.502858 28.1358 1.20381 29.2634 2.60572C30.4215 4.00762 31.0005 5.92762 31.0005 8.36571C31.0005 11.8705 30.2386 15.6952 28.7148 19.84C30.3301 20.1143 32.1739 20.2514 34.2463 20.2514ZM20.7605 11.2457C20.7605 14.2324 21.7205 16.4419 23.6405 17.8743C24.8291 14.461 25.4234 11.6419 25.4234 9.41714C25.4234 8.13714 25.2558 7.20762 24.9205 6.62857C24.5853 6.01905 24.1282 5.71429 23.5491 5.71429C22.7263 5.71429 22.0558 6.2019 21.5377 7.17714C21.0196 8.1219 20.7605 9.4781 20.7605 11.2457ZM42.1409 15.68C40.8609 15.68 39.9009 15.3905 39.2609 14.8114C38.6209 14.2019 38.3009 13.3638 38.3009 12.2971C38.3009 11.2305 38.7123 10.3467 39.5352 9.64571C40.3885 8.91429 41.4399 8.54857 42.6895 8.54857C43.8171 8.54857 44.7314 8.82286 45.4323 9.37143C46.1333 9.92 46.4838 10.6971 46.4838 11.7029C46.4838 12.9219 46.0876 13.8971 45.2952 14.6286C44.5028 15.3295 43.4514 15.68 42.1409 15.68ZM41.7752 40.2286C39.7942 40.2286 38.3466 39.5276 37.4323 38.1257C36.5485 36.7238 36.1066 34.8648 36.1066 32.5486C36.1066 31.1771 36.2742 29.4248 36.6095 27.2914C36.9752 25.1276 37.4323 23.1162 37.9809 21.2571C38.2552 20.2819 38.6209 19.6114 39.078 19.2457C39.5352 18.88 40.2666 18.6971 41.2723 18.6971C42.8266 18.6971 43.6038 19.2152 43.6038 20.2514C43.6038 21.0133 43.3142 22.781 42.7352 25.5543C42.0038 28.9067 41.638 31.1771 41.638 32.3657C41.638 33.28 41.7599 33.981 42.0038 34.4686C42.2476 34.9562 42.659 35.2 43.238 35.2C43.7866 35.2 44.4723 34.819 45.2952 34.0571C46.118 33.2952 47.2152 32.0914 48.5866 30.4457C48.9523 30.019 49.3638 29.8057 49.8209 29.8057C50.2171 29.8057 50.5218 29.9886 50.7352 30.3543C50.979 30.72 51.1009 31.2229 51.1009 31.8629C51.1009 33.0819 50.8114 34.0267 50.2323 34.6971C47.2152 38.3848 44.3961 40.2286 41.7752 40.2286ZM74.8202 26.1029C74.9116 26.0724 75.064 26.0571 75.2773 26.0571C75.7345 26.0571 76.0849 26.2095 76.3288 26.5143C76.5726 26.819 76.6945 27.2305 76.6945 27.7486C76.6945 28.6933 76.5116 29.44 76.1459 29.9886C75.7802 30.5067 75.2316 30.8876 74.5002 31.1314C73.0983 31.5886 71.6049 31.8171 70.0202 31.8171C68.6792 31.8171 67.4145 31.6343 66.2259 31.2686C65.3421 32.701 64.3669 34.179 63.3002 35.7029C62.0811 37.44 61.0297 38.6286 60.1459 39.2686C59.2621 39.9086 58.2564 40.2286 57.1288 40.2286C55.8792 40.2286 54.8888 39.741 54.1573 38.7657C53.4564 37.7905 53.0145 36.2514 52.8316 34.1486C52.4659 29.8819 52.283 26.1486 52.283 22.9486V21.3486C52.3135 20.3429 52.5878 19.6419 53.1059 19.2457C53.624 18.8495 54.4011 18.6514 55.4373 18.6514C56.2297 18.6514 56.8088 18.8343 57.1745 19.2C57.5707 19.5352 57.7688 20.1143 57.7688 20.9371C57.7688 24.4419 57.9821 28.9981 58.4088 34.6057C60.2373 31.8933 61.6088 29.7295 62.523 28.1143C62.0659 27.2305 61.8373 26.179 61.8373 24.96C61.8373 23.9238 62.0659 22.9181 62.523 21.9429C62.9802 20.9676 63.6049 20.1752 64.3973 19.5657C65.1897 18.9562 66.0888 18.6514 67.0945 18.6514C67.9783 18.6514 68.6945 18.9714 69.243 19.6114C69.7916 20.221 70.0659 21.12 70.0659 22.3086C70.0659 23.68 69.7002 25.2495 68.9688 27.0171C70.1269 26.9562 71.6659 26.7276 73.5859 26.3314L74.8202 26.1029ZM97.4588 29.8057C97.8549 29.8057 98.1597 29.9886 98.373 30.3543C98.6169 30.72 98.7388 31.2229 98.7388 31.8629C98.7388 33.0819 98.4492 34.0267 97.8702 34.6971C96.7426 36.0686 95.1426 37.3333 93.0702 38.4914C91.0283 39.6495 88.834 40.2286 86.4873 40.2286C83.2873 40.2286 80.8035 39.36 79.0359 37.6229C77.2683 35.8857 76.3845 33.5086 76.3845 30.4914C76.3845 28.3886 76.8264 26.4381 77.7102 24.64C78.594 22.8114 79.813 21.3638 81.3673 20.2971C82.9521 19.2305 84.7349 18.6971 86.7159 18.6971C88.4835 18.6971 89.9007 19.2305 90.9673 20.2971C92.034 21.3333 92.5673 22.7505 92.5673 24.5486C92.5673 26.6514 91.8054 28.4648 90.2816 29.9886C88.7883 31.4819 86.2435 32.6705 82.6473 33.5543C83.4092 34.9562 84.8569 35.6571 86.9902 35.6571C88.3616 35.6571 89.9159 35.1848 91.653 34.24C93.4207 33.2648 94.9445 32 96.2245 30.4457C96.5902 30.019 97.0016 29.8057 97.4588 29.8057ZM85.9388 23.1771C84.8111 23.1771 83.8511 23.8324 83.0588 25.1429C82.2969 26.4533 81.9159 28.0381 81.9159 29.8971V29.9886C83.714 29.5619 85.1311 28.9219 86.1673 28.0686C87.2035 27.2152 87.7216 26.2248 87.7216 25.0971C87.7216 24.5181 87.554 24.061 87.2188 23.7257C86.914 23.36 86.4873 23.1771 85.9388 23.1771ZM132.548 29.8057C132.944 29.8057 133.249 29.9886 133.462 30.3543C133.706 30.72 133.828 31.2229 133.828 31.8629C133.828 33.0514 133.539 33.9962 132.959 34.6971C131.253 36.739 129.592 38.1714 127.977 38.9943C126.392 39.8171 124.472 40.2286 122.217 40.2286C120.632 40.2286 119.169 40.0305 117.828 39.6343C116.487 39.2381 114.857 38.6438 112.937 37.8514C111.199 37.0895 109.523 36.4648 107.908 35.9771C106.354 38.8114 104.022 40.2286 100.914 40.2286C99.2071 40.2286 97.8509 39.8476 96.8452 39.0857C95.809 38.2933 95.2909 37.2876 95.2909 36.0686C95.2909 34.5752 96.0071 33.341 97.4395 32.3657C98.8719 31.36 100.777 30.8571 103.154 30.8571H103.748L104.571 17.5543C104.754 14.5067 105.302 11.9924 106.217 10.0114C107.131 8.03048 108.396 6.33905 110.011 4.93714C111.413 3.7181 113.013 2.80381 114.811 2.19429C116.609 1.55429 118.514 1.23429 120.525 1.23429C123.817 1.23429 126.346 2.08762 128.114 3.79429C129.881 5.50095 130.765 7.72571 130.765 10.4686C130.765 12.3276 130.43 13.8362 129.759 14.9943C129.089 16.1219 128.159 16.6857 126.971 16.6857C126.118 16.6857 125.447 16.4876 124.959 16.0914C124.472 15.6648 124.228 15.0705 124.228 14.3086C124.228 14.0343 124.289 13.5314 124.411 12.8C124.594 11.9467 124.685 11.1848 124.685 10.5143C124.685 9.23429 124.304 8.22857 123.542 7.49714C122.811 6.73524 121.683 6.35428 120.159 6.35428C117.478 6.35428 115.405 7.23809 113.942 9.00571C112.479 10.7429 111.55 13.4857 111.154 17.2343L110.102 27.6114C109.95 29.0743 109.752 30.339 109.508 31.4057C111.459 31.741 113.897 32.2743 116.822 33.0057C118.529 33.4324 119.839 33.7371 120.754 33.92C121.668 34.1029 122.476 34.1943 123.177 34.1943C124.944 34.1943 126.453 33.9048 127.702 33.3257C128.982 32.7162 130.186 31.7562 131.314 30.4457C131.679 30.019 132.091 29.8057 132.548 29.8057ZM161.436 25.9657C161.832 25.9657 162.137 26.1638 162.351 26.56C162.564 26.9562 162.671 27.459 162.671 28.0686C162.671 29.5314 162.229 30.4 161.345 30.6743C159.516 31.3143 157.505 31.68 155.311 31.7714C154.731 34.3314 153.589 36.3886 151.882 37.9429C150.175 39.4667 148.24 40.2286 146.076 40.2286C144.248 40.2286 142.678 39.7867 141.368 38.9029C140.088 38.019 139.112 36.8457 138.442 35.3829C137.771 33.92 137.436 32.3352 137.436 30.6286C137.436 28.3124 137.878 26.2552 138.762 24.4571C139.646 22.6286 140.865 21.2114 142.419 20.2057C143.973 19.1695 145.695 18.6514 147.585 18.6514C149.901 18.6514 151.76 19.459 153.162 21.0743C154.594 22.659 155.432 24.6248 155.676 26.9714C157.109 26.88 158.815 26.5752 160.796 26.0571C161.04 25.9962 161.253 25.9657 161.436 25.9657ZM146.442 35.3829C147.417 35.3829 148.255 34.9867 148.956 34.1943C149.688 33.4019 150.175 32.259 150.419 30.7657C149.474 30.1257 148.743 29.2876 148.225 28.2514C147.737 27.2152 147.493 26.1181 147.493 24.96C147.493 24.4724 147.539 23.9848 147.631 23.4971H147.402C146.183 23.4971 145.162 24.0914 144.339 25.28C143.547 26.4381 143.151 28.0838 143.151 30.2171C143.151 31.8933 143.471 33.1733 144.111 34.0571C144.781 34.941 145.558 35.3829 146.442 35.3829ZM167.981 15.68C166.701 15.68 165.741 15.3905 165.101 14.8114C164.461 14.2019 164.141 13.3638 164.141 12.2971C164.141 11.2305 164.553 10.3467 165.376 9.64571C166.229 8.91429 167.28 8.54857 168.53 8.54857C169.657 8.54857 170.572 8.82286 171.273 9.37143C171.974 9.92 172.324 10.6971 172.324 11.7029C172.324 12.9219 171.928 13.8971 171.136 14.6286C170.343 15.3295 169.292 15.68 167.981 15.68ZM176.21 29.8971C176.606 29.8971 176.911 30.0952 177.124 30.4914C177.368 30.8571 177.49 31.3295 177.49 31.9086C177.49 32.6095 177.383 33.1581 177.17 33.5543C176.956 33.9505 176.621 34.301 176.164 34.6057C174.031 36.0076 171.181 37.9429 167.616 40.4114C166.427 46.7505 164.888 51.7333 162.998 55.36C161.109 58.9867 158.701 60.8 155.776 60.8C154.191 60.8 152.926 60.3124 151.981 59.3371C151.006 58.3924 150.518 57.1429 150.518 55.5886C150.518 53.4248 151.356 51.1086 153.033 48.64C154.709 46.2019 157.863 43.1848 162.496 39.5886L162.816 37.2571C163.242 34.3314 163.577 31.4514 163.821 28.6171C164.004 26.9714 164.294 24.5181 164.69 21.2571C164.812 20.3733 165.147 19.7333 165.696 19.3371C166.244 18.9105 167.082 18.6971 168.21 18.6971C169.124 18.6971 169.718 18.8343 169.993 19.1086C170.297 19.3829 170.45 19.7638 170.45 20.2514C170.45 21.6533 169.947 25.5238 168.941 31.8629L168.484 35.0171C170.922 33.1886 173.147 31.6038 175.158 30.2629C175.555 30.019 175.905 29.8971 176.21 29.8971ZM156.278 56.3657C157.071 56.3657 157.939 55.4667 158.884 53.6686C159.829 51.8705 160.713 48.9752 161.536 44.9829C159.219 46.9638 157.558 48.7467 156.553 50.3314C155.516 51.9467 154.998 53.3638 154.998 54.5829C154.998 55.7714 155.425 56.3657 156.278 56.3657ZM183.851 40.2286C182.113 40.2286 180.696 39.5429 179.599 38.1714C178.532 36.8 177.999 35.0019 177.999 32.7771C177.999 30.339 178.563 28.0381 179.691 25.8743C180.818 23.68 182.311 21.9276 184.171 20.6171C186.06 19.2762 188.056 18.6057 190.159 18.6057C190.83 18.6057 191.271 18.7429 191.485 19.0171C191.729 19.261 191.927 19.7181 192.079 20.3886C192.658 20.2667 193.298 20.2057 193.999 20.2057C194.731 20.2057 195.294 20.3886 195.691 20.7543C196.087 21.12 196.285 21.6381 196.285 22.3086C196.285 23.0095 196.132 24.2286 195.828 25.9657C195.492 27.8248 195.233 29.6076 195.051 31.3143C194.868 32.9905 194.776 34.88 194.776 36.9829C194.776 38.141 194.532 38.979 194.045 39.4971C193.588 39.9848 192.826 40.2286 191.759 40.2286C190.723 40.2286 189.946 39.9848 189.428 39.4971C188.94 38.979 188.696 38.1562 188.696 37.0286L188.742 36.2971C187.797 38.9181 186.167 40.2286 183.851 40.2286ZM185.633 35.6114C186.487 35.6114 187.264 35.0171 187.965 33.8286C188.666 32.64 189.291 30.5219 189.839 27.4743L190.708 22.8571C189.458 22.8876 188.3 23.3752 187.233 24.32C186.167 25.2343 185.313 26.4533 184.673 27.9771C184.033 29.501 183.713 31.1162 183.713 32.8229C183.713 33.7371 183.881 34.4381 184.216 34.9257C184.582 35.3829 185.054 35.6114 185.633 35.6114ZM209.887 29.3029C209.277 29.3029 208.774 29.1657 208.378 28.8914C207.982 28.6171 207.784 28.1905 207.784 27.6114L207.829 27.2457C208.348 23.8324 209.049 19.9467 209.932 15.5886C210.816 11.2305 211.639 7.46667 212.401 4.29714C212.889 2.34667 214.214 1.37143 216.378 1.37143C218.329 1.37143 219.304 1.99619 219.304 3.24572C219.304 3.52 219.258 3.82476 219.167 4.16C218.374 7.39048 217.323 11.3067 216.012 15.9086C214.702 20.48 213.452 24.4571 212.264 27.84C211.929 28.8152 211.136 29.3029 209.887 29.3029ZM208.149 40.2286C206.809 40.2286 205.788 39.8629 205.087 39.1314C204.416 38.4 204.081 37.44 204.081 36.2514C204.081 34.88 204.462 33.7829 205.224 32.96C206.016 32.1371 207.113 31.7257 208.515 31.7257C209.856 31.7257 210.862 32.061 211.532 32.7314C212.233 33.3714 212.584 34.3314 212.584 35.6114C212.584 37.0133 212.188 38.141 211.395 38.9943C210.603 39.8171 209.521 40.2286 208.149 40.2286Z" fill="#4737FF"/>
</svg>
