<svg width="142" height="127" viewBox="0 0 142 127" fill="none" xmlns="http://www.w3.org/2000/svg">
<path d="M91.0513 53.0942C91.1573 53.1631 91.1195 53.1283 91.2002 53.2231C91.9643 54.123 92.1075 53.4932 92.5792 53.7705C92.494 53.8297 92.4102 53.8905 92.3261 53.9507C92.2246 54.0231 92.124 54.0907 92.055 54.1914C91.8703 54.4597 91.9231 54.7469 91.9919 55.0387L92.0115 55.1185L91.8853 55.1159C91.7958 54.9947 91.706 54.8732 91.6108 54.7553C91.3809 54.4709 90.9183 54.478 90.5603 54.4336C90.5938 54.0986 91.1099 54.0249 91.0618 53.5507C91.0459 53.3929 91.0419 53.2526 91.0513 53.0942Z" fill="#9A9EA6"/>
<path d="M46.6804 88.3599C47.1362 88.7258 46.8617 89.5454 47.2291 89.8784C47.6196 90.2319 48.5903 90.1551 49.1049 90.1195C48.5175 90.3389 48.1055 90.576 47.648 90.9707C47.5286 91.542 47.6113 92.0815 47.5502 92.648L47.4431 92.5552C47.2712 92.049 47.0444 91.5875 46.7779 91.1163C46.0263 90.7816 45.4546 90.8103 44.6433 90.8286C45.3565 90.6271 45.9217 90.5208 46.5418 90.1185C46.758 89.5091 46.7228 88.9914 46.6804 88.3599Z" fill="#9A9EA6"/>
<path d="M91.578 44.2078C91.9389 44.4914 92.2381 45.3255 92.5714 45.7217C92.7794 45.9687 93.0559 46.1664 93.3196 46.3642C94.2522 46.3929 95.0254 46.2516 95.9262 46.0653C95.0058 46.463 94.1746 46.7733 93.635 47.6003C93.5512 48.5086 93.7575 49.1617 94.0632 50.0149L94.0112 50.0721C93.9456 49.9836 93.8981 49.8802 93.8458 49.7849C93.394 48.8707 93.0266 48.2461 92.0011 47.7683C91.233 47.7662 90.7806 47.935 90.0691 48.1274C89.8435 48.1884 89.6872 48.2692 89.4709 48.1665L89.5488 48.244L89.4502 48.229C89.4792 48.0984 91.2077 47.6959 91.7272 46.9718C92.3003 46.1733 91.7644 45.053 91.578 44.2078Z" fill="#9A9EA6"/>
<path d="M74.9616 14.8224C75.6202 14.9563 76.1181 15.429 76.7722 15.5737C77.5434 15.7443 78.3507 15.4607 79.1259 15.5297C79.3609 15.5506 79.4473 15.6141 79.5891 15.7766C79.7013 16.222 79.4433 16.6075 79.2543 17.0096C79.7758 17.5655 80.5674 18.1285 80.8891 18.7979C80.9542 18.933 80.9866 18.9551 80.9235 19.097C80.7172 19.1464 80.5845 19.0828 80.3966 19.0153C79.366 18.5714 77.9961 18.5279 76.9876 19.0827C76.6574 19.2642 76.3468 19.5659 75.9709 19.6558L75.8456 19.5764C75.5577 18.8766 75.8939 18.1171 75.7714 17.4046C75.5986 16.3991 74.8755 15.9749 74.9616 14.8224Z" fill="#9A9EA6"/>
<path d="M42.8853 53.5767C43.4624 53.7515 43.9909 54.1487 44.5032 54.4443C45.1713 54.4865 46.8794 54.1708 47.3656 54.4346C47.5213 54.5193 47.6131 54.6125 47.6463 54.7752C47.7165 55.1208 47.3815 55.5475 47.1811 55.8238C47.5579 56.2068 47.9813 56.5501 48.3675 56.9247C48.6142 57.1641 48.9458 57.5324 48.9293 57.8739L48.8119 57.9687C48.5923 57.9903 48.4948 57.9542 48.2979 57.88C48.0385 57.7779 47.7659 57.6693 47.4897 57.6106C45.9255 57.2787 45.0969 57.9537 43.8835 58.632L43.7556 58.5853C43.4115 57.9822 43.8625 57.0655 43.7127 56.406C43.7065 56.3786 43.6985 56.3516 43.6914 56.3242C43.4246 55.2649 42.7301 54.7739 42.8853 53.5767Z" fill="#9A9EA6"/>
<path d="M42.151 79.7252C42.6082 80.0909 42.667 83.8537 44.3998 85.3369C45.8771 86.6013 47.627 86.0343 49.4092 86.0005C48.245 86.3715 46.9257 86.3796 45.8979 87.0554C44.0725 88.2555 44.4046 90.5371 44.6595 92.2869C44.7471 92.888 44.8903 93.5037 44.7948 94.1091L44.7746 94.0649C44.7371 93.8539 44.6973 93.6433 44.6553 93.4331C44.31 91.6879 43.8309 89.0921 42.0544 88.0283C40.7794 87.2648 39.1611 87.534 37.7625 87.7901C37.7821 87.7281 37.7619 87.7561 37.8463 87.7152C39.1679 87.075 40.4281 87.5022 41.7068 86.1296C43.2774 84.4434 42.3311 81.6907 42.151 79.7252Z" fill="#9A9EA6"/>
<path d="M97.8524 47.4955C98.292 47.8703 98.5378 48.7159 98.7571 49.2264C99.3289 50.5579 100.219 52.2306 101.596 53.0406C103.424 54.1143 105.935 53.4043 107.805 52.7859C108.461 52.5689 109.138 52.2784 109.824 52.1541C109.848 52.1498 109.873 52.1463 109.897 52.1422C107.987 53.2007 105.355 53.5151 103.828 55.0796C102.254 56.6916 103.037 59.2559 103.78 61.0445C103.984 61.537 104.405 62.2611 104.408 62.7762C104.409 62.8019 104.403 62.8276 104.401 62.8532C104.125 62.5661 103.117 60.2775 102.769 59.6724C101.173 56.8995 99.5147 56.1452 96.1091 57.0461C95.3833 57.238 94.6371 57.423 93.9356 57.6779C93.6665 57.7757 92.96 58.1211 92.6847 58.0426C93.0351 57.7173 93.8253 57.5389 94.293 57.3806C95.8198 56.8639 97.5898 56.1459 98.5946 54.9398C100.041 53.2035 99.0842 50.9104 98.3858 49.092C98.1888 48.5797 97.9356 48.0325 97.8524 47.4955Z" fill="#9A9EA6"/>
<path d="M71.6135 62.7051C72.1088 62.7912 72.5677 62.9516 72.9453 63.2604C73.9197 64.0569 74.0661 65.5964 74.4582 66.6687C74.6696 67.2476 74.9549 67.7965 75.2695 68.3358C76.1021 69.7633 77.0446 71.1954 78.119 72.4882C79.5665 74.2294 83.6675 77.5861 83.643 79.7262C83.6413 79.869 83.5933 80.0202 83.4646 80.112C83.3057 80.2256 83.1068 80.2609 82.9068 80.236C81.3388 80.0416 78.7586 76.8437 77.8027 75.6635C77.7973 76.9174 77.9335 78.3492 77.5695 79.5628C77.3322 80.3539 76.9219 80.7793 76.1521 81.1796C75.9031 81.1281 75.6547 81.0747 75.4067 81.0195C72.7638 80.4251 71.2617 78.1503 69.954 76.1893C70.2081 77.6539 70.1856 79.1424 69.4496 80.4957C71.0844 81.2208 72.585 82.1291 74.29 82.7367C75.8111 83.2786 77.462 83.5375 79.0331 83.9495C80.9984 84.4649 81.854 84.7305 82.8508 86.4292C83.1466 86.9336 83.4816 87.8216 83.2515 88.3721C83.1753 88.554 83.0099 88.7116 82.8002 88.7713C81.5158 89.1373 78.2463 86.7545 77.0489 86.1544C75.8975 85.5775 74.6773 85.1023 73.5162 84.534C72.0386 83.8395 70.5945 83.0976 69.1257 82.3911C67.6359 81.6747 66.1835 81.3547 65.0361 80.1575C64.4482 79.5445 63.7685 78.5747 63.8634 77.7352C64.0501 76.0831 66.3006 77.304 67.2105 76.5215C67.4779 76.2917 67.5123 75.9466 67.5057 75.6317C67.4753 74.1808 65.5405 69.1897 64.7204 67.914C64.5604 67.6646 64.3459 67.473 64.1188 67.2733C63.6287 67.6031 63.1322 67.7203 62.5517 67.868C62.1846 67.7406 61.828 67.5981 61.4966 67.4072C60.3023 66.7195 59.0083 65.3614 58.7306 64.0868C58.6693 63.8053 58.6877 63.5105 58.8804 63.2708C59.1214 62.9717 59.4319 62.883 59.8281 62.8408C61.3145 62.6814 65.0713 62.9305 66.1273 63.884C66.9283 64.6071 67.0704 66.8275 67.4185 67.858C68.2718 70.3834 70.9452 76.7865 73.244 78.3465C73.5114 78.5277 73.7961 78.6491 74.1365 78.5968C74.4267 78.5518 74.6449 78.3932 74.8032 78.1764C76.3427 76.0665 74.4281 70.5095 73.4128 68.3419C72.6208 66.6514 71.3845 64.984 70.9659 63.1803C71.1708 62.9887 71.3583 62.8413 71.6135 62.7051Z" fill="#9A9EA6"/>
<path d="M54.8048 62.1414C54.9877 62.1325 55.1534 62.1429 55.333 62.1793C56.2031 62.3554 56.893 62.8446 57.3517 63.5199C58.4914 65.1975 58.1024 67.3831 57.6219 69.1872C58.9341 69.8843 60.0847 70.6208 61.0486 71.6908C61.17 71.8268 61.2876 71.9654 61.4015 72.1066C61.5151 72.2477 61.6249 72.3913 61.7308 72.5373C61.8367 72.6834 61.9384 72.8317 62.036 72.9823C62.1337 73.1328 62.2271 73.2853 62.3162 73.44C62.4054 73.5947 62.4903 73.7513 62.5708 73.9097C62.6513 74.0681 62.7274 74.2283 62.7992 74.3903C62.8709 74.5521 62.9379 74.7153 63.0004 74.88C63.0631 75.0448 63.1212 75.2109 63.1746 75.3781C63.228 75.5455 63.2768 75.714 63.321 75.8836C63.3651 76.053 63.4045 76.2234 63.4392 76.3947C63.4738 76.566 63.5037 76.7379 63.5287 76.9103C63.5539 77.083 63.5743 77.256 63.5901 77.4295C63.6056 77.603 63.6163 77.7767 63.6222 77.9505C63.6282 78.1245 63.6294 78.2985 63.6256 78.4725C63.622 78.6465 63.6135 78.8204 63.6003 78.994C63.587 79.1677 63.5689 79.3409 63.546 79.5137C63.2997 81.4185 62.4173 83.117 60.5848 84.1849C60.0921 84.472 59.4968 84.641 59.0282 84.9364C58.7591 85.1059 58.6318 85.4182 58.3707 85.5839C58.1169 85.7448 57.4477 85.3796 57.2212 85.2487C56.3824 84.7643 55.6436 84.0893 54.8826 83.5106C53.9261 82.7911 52.9406 82.1051 51.9259 81.4526C49.3839 79.8141 45.9981 77.9101 42.7954 77.8024C41.3826 77.7551 39.9362 77.9886 38.537 77.7236C37.8084 77.5856 37.0722 77.2806 36.6763 76.6892C36.5135 76.446 36.3621 76.1327 36.4834 75.8506C36.5934 75.5939 36.8466 75.4688 37.1156 75.3664C40.3764 74.1247 43.9894 75.1806 46.9651 76.5291C48.0185 77.0066 49.0545 77.596 50.144 77.9978C48.4004 76.0747 46.5943 74.4947 44.5648 72.8202C43.5609 71.9917 42.5581 71.1492 41.482 70.3954C40.6156 69.7883 39.5668 69.4139 38.7246 68.7659C38.3929 68.5107 38.0477 68.1717 37.9514 67.7775C37.937 67.7213 37.9294 67.6643 37.9286 67.6067C37.9277 67.5491 37.9336 67.4921 37.9462 67.4357C37.9591 67.3793 37.9784 67.3246 38.0042 67.2718C38.03 67.2189 38.0616 67.1691 38.0991 67.1223C38.5384 66.5721 39.5793 66.3223 40.2905 66.198C42.2532 65.8552 43.747 66.2933 45.3852 67.2763C45.3278 66.8108 45.1806 65.9932 45.546 65.6097C45.6608 65.489 45.7967 65.4145 45.9794 65.4181C46.498 65.4277 46.9489 65.8877 47.2925 66.1894C47.6965 66.5848 48.1177 67.0179 48.3927 67.4967C48.7979 68.2022 49.5694 70.7827 49.198 71.508C49.1108 71.6786 49.0787 71.6811 48.892 71.7314C47.4374 71.5103 45.6839 69.2203 44.2898 68.4459C43.0571 67.761 42.0628 67.8939 40.7168 68.1735C41.1737 68.5158 41.5943 68.8947 42.0498 69.2383C44.8132 71.3243 47.5906 73.4301 50.0991 75.7657C51.0431 76.6445 54.0404 79.9321 54.9897 80.3105C55.2668 80.4208 55.5893 80.372 55.8564 80.2604C56.431 80.021 56.8274 79.4957 57.1238 79.0118C58.0669 77.4712 58.1249 76.3159 58.1175 74.6106C58.1155 74.1839 58.072 73.6553 58.2729 73.2596C58.351 73.1056 58.419 73.0647 58.5886 73.0021C58.8068 73.0413 58.9259 73.1338 59.0674 73.2814C60.4115 74.684 59.3538 78.6499 59.1799 80.4203C59.7968 79.9608 60.2935 79.4815 60.7115 78.8647C61.6368 77.4992 62.0323 75.8887 61.5819 74.3262C61.2446 73.1564 60.0654 71.1733 58.5806 70.9467C57.8256 70.8315 57.022 71.2374 56.3071 70.8231C55.1418 70.1476 56.1474 67.7953 56.379 66.8354C56.5756 66.0211 56.7978 64.9784 56.5543 64.154C56.4963 63.958 56.4191 63.8675 56.2287 63.7633C55.9965 63.7583 55.861 63.8119 55.6746 63.9285C53.3243 65.3993 53.7579 68.2019 53.3007 70.3936C53.2183 70.7886 53.0569 71.2671 52.6514 71.4931C52.4033 71.6313 52.1132 71.6283 51.839 71.5609C50.843 71.3164 49.8757 70.3825 49.3952 69.5931C48.973 68.8998 48.7883 68.1402 49.067 67.3704C49.6993 65.6244 53.0305 62.9702 54.8048 62.1414Z" fill="#9A9EA6"/>
<path d="M84.9633 56.5427C85.6742 55.9376 87.8151 53.8663 88.6576 53.5957C88.8196 53.5436 88.956 53.5542 89.1134 53.6165C90.5771 54.1939 88.8983 56.4957 88.8147 57.4294C88.6874 58.8538 89.2546 60.5881 89.88 61.8829C89.9929 61.3686 90.0878 60.8608 90.1275 60.3373C90.2063 59.3054 90.063 56.5803 90.8232 55.7891C90.9246 55.6834 90.9448 55.6855 91.0903 55.6816C91.5654 56.1406 91.3849 58.7606 91.5171 59.5314C91.7035 60.6194 92.1272 61.7053 93.1774 62.3656C94.2706 63.0528 95.8869 63.007 97.1613 62.8273C97.452 63.0975 97.691 63.4274 97.8802 63.7613C98.1357 64.2119 98.4065 64.8302 98.1971 65.3288C98.0936 65.5751 97.8799 65.754 97.6148 65.8618C96.9809 66.1195 96.2034 66.0165 95.5695 65.8104C93.3809 65.0986 91.7748 63.0525 90.8158 61.2494C90.7697 61.8809 90.6015 62.4924 90.6285 63.13C90.7089 65.0323 92.3028 66.9485 93.4323 68.4926C93.8364 68.0629 94.2743 67.7256 94.7948 67.4136C94.9869 67.5173 95.1776 67.6273 95.3461 67.7607C95.8187 68.1348 96.1648 68.7206 96.1875 69.2889C96.2497 69.5964 96.3012 70.0058 96.2082 70.3128C96.196 71.6338 95.0173 74.1857 94.1265 75.2586C93.8509 75.5908 93.382 76.0925 92.8873 76.122C92.5153 76.1441 91.8271 75.7578 91.5745 75.5311C90.9439 74.9654 90.9061 74.1071 90.9036 73.3584C87.1445 71.7052 83.8977 69.0586 80.8526 66.5322C81.8989 68.7048 83.0946 70.8691 84.5993 72.8209C85.2397 73.652 87.3658 75.6737 87.3522 76.583C87.3488 76.812 87.2584 77.032 87.0589 77.1825C86.8526 77.3388 86.5764 77.3716 86.3161 77.3413C84.7268 77.1571 79.7336 73.8288 78.6868 72.6494C78.2762 72.1863 77.5499 71.2183 77.7224 70.6038C77.7729 70.4231 77.8292 70.4061 77.9934 70.3108C78.965 70.2061 80.2488 70.967 81.0996 71.3334C80.8416 70.9116 80.6418 70.4579 80.4054 70.0254C79.5788 68.5125 78.7825 66.9686 77.8784 65.492C76.8437 63.802 75.3644 62.2563 74.5935 60.4465C74.3878 59.9634 74.2028 59.3761 74.4759 58.8851C74.6273 58.6129 74.8782 58.4071 75.2064 58.3201C75.6861 58.1933 76.2331 58.3196 76.6803 58.4871C78.824 59.2894 78.7908 60.5576 79.4736 62.2542C79.7171 62.8596 80.0877 63.4474 80.4849 63.9819C81.9577 65.9639 84.8664 68.4901 87.2513 69.663L87.338 69.7052C85.6145 67.668 83.8667 65.3855 82.8113 63.0017C82.1964 61.6125 81.076 58.2998 81.7841 56.9681C81.9793 56.6011 82.3672 56.396 82.7917 56.2845C83.5362 56.0888 84.2938 56.2207 84.9633 56.5427ZM86.9492 58.7433C85.9314 60.8054 86.4949 63.9839 87.3823 66.0105C88.2689 68.0349 89.6192 69.5186 91.3031 71.0468L91.4347 71.1395C91.6057 70.8229 90.6407 68.5099 90.4435 68.0042C89.7769 66.2959 89.0421 64.6111 88.4462 62.8802C88.0677 61.7808 87.8276 60.641 87.4178 59.5515C87.3124 59.2711 87.1959 58.9481 86.9492 58.7433ZM96.2082 70.3128C96.3012 70.0058 96.2497 69.5964 96.1875 69.2889L96.0707 69.2518L96.0204 68.9882L95.9053 69.0002C95.803 69.3694 95.8405 70.3481 95.9741 70.7009L96.036 70.7133L96.0593 70.3245L96.1304 70.276L96.2082 70.3128Z" fill="#9A9EA6"/>
<path d="M96.2083 70.3129L96.1305 70.276L96.0594 70.3246L96.0361 70.7134L95.9742 70.7009C95.8406 70.3482 95.8031 69.3695 95.9054 69.0002L96.0205 68.9883L96.0708 69.2518L96.1876 69.2889C96.2498 69.5964 96.3012 70.0059 96.2083 70.3129Z" fill="#9A9EA6"/>
<path d="M58.0447 22.2594C59.6028 22.1381 60.9701 22.7048 62.3162 23.3295C65.0325 22.514 67.9883 22.9751 70.6244 23.8076C71.4976 24.0833 72.345 24.4234 73.2185 24.6976C73.903 24.9124 74.6458 24.974 75.3181 25.1952C75.8714 25.3772 76.4923 26.0488 76.9858 26.3837C80.8007 28.9716 81.5057 29.5503 83.5982 33.4522C84.8553 35.7964 86.4594 39.7945 85.4469 42.295C84.8067 43.8758 83.3612 44.1169 81.8589 44.7414L81.8458 44.826C81.8867 44.8603 81.9276 44.8949 81.9654 44.9317C82.5835 45.532 82.9713 47.743 82.9026 48.6114C82.7918 50.0158 81.9828 51.3241 80.7913 52.2332C79.5703 53.1649 78.0602 53.5148 76.4752 53.4022C76.8023 53.6579 77.0921 53.9489 77.3893 54.2318C75.3855 56.2585 73.1963 57.8616 70.6113 59.2693C68.5486 60.3581 66.4424 60.7332 64.0706 60.7662C62.5577 60.7873 60.366 60.7215 58.9276 60.3319C55.8769 59.5062 53.9023 56.9145 52.9356 54.3398C52.5937 53.4292 52.5199 52.0311 51.941 51.2649C51.531 50.7218 50.8101 50.5012 50.3119 50.044C49.3435 49.1555 48.5365 46.0992 48.3467 44.8491C48.2339 44.1055 48.2623 43.3449 48.1245 42.6048C47.9514 41.6759 47.6056 40.7892 47.5945 39.839C47.1192 39.6199 46.7816 39.3193 46.3701 39.0224C46.0737 38.8087 45.876 38.7116 45.4892 38.7556C45.1781 38.7909 44.8862 38.8313 44.6041 38.6791C44.3972 38.5675 44.2563 38.427 44.2043 38.2089C43.9184 37.0099 46.157 34.1881 46.9006 33.1866C46.5125 32.2071 45.8581 31.5329 45.8899 30.4269C45.9157 29.5282 46.2735 28.6357 47.0294 28.0201C48.1961 27.0697 49.5228 27.0211 51.0155 27.078C51.2139 27.3314 51.3844 27.6077 51.5639 27.8722C51.9231 26.6117 52.4318 25.3583 53.2965 24.2972C54.4786 22.8472 56.169 22.5122 58.0447 22.2594ZM58.2073 23.2762C56.9169 23.4004 55.7234 23.7538 54.8761 24.6792C54.4518 25.1422 54.1242 25.6759 53.8446 26.2178C53.4297 27.0219 53.0561 28.53 51.9047 28.6636C51.0928 28.7579 50.14 28.1889 49.5228 27.7624C48.6621 28.1068 47.8685 28.5274 47.5201 29.3646C46.9353 30.7694 48.1754 32.0523 47.9429 33.4938C47.754 34.6654 46.4082 35.5877 46.4809 36.7451C46.5929 36.8556 46.5304 36.8371 46.6744 36.8419C47.0922 36.8554 47.488 36.5705 47.8278 36.879C47.9549 37.3024 47.411 38.1314 47.7344 38.4445C48.1586 38.5289 48.5561 38.4328 48.9213 38.2257C49.3901 37.9599 49.5947 37.542 49.6965 37.0686C49.9556 35.8627 49.9553 34.962 51.2036 34.1599C50.7979 33.6306 50.2835 32.9667 50.4523 32.2905C50.487 32.1525 50.4586 32.2064 50.587 32.106C51.2056 32.1995 51.9387 33.7836 52.3184 33.6362C52.342 33.0084 51.5574 32.1367 52.0513 31.572C52.2797 31.556 52.4022 31.5957 52.5758 31.7329C52.964 32.0394 53.0598 32.4216 53.2121 32.8463C54.0643 33.1525 55.027 33.2671 55.9209 33.4565C55.0687 32.9655 54.0049 32.5522 53.3178 31.8808C53.243 31.68 53.1572 31.5016 53.1893 31.2864L53.2811 31.1771C53.7986 31.128 54.549 31.7916 55.0585 31.972C55.9144 32.2752 56.8297 32.3258 57.6952 32.5805C57.8495 32.8018 58.0146 33.1233 58.3221 33.1851C58.4707 33.215 58.5943 33.2128 58.7404 33.1723C58.8384 33.0966 58.8512 33.0709 58.8492 32.949C58.8364 32.2076 56.6177 30.5491 56.8626 30.1913C57.5858 30.2276 58.5792 30.9262 59.0472 31.4005C59.4843 31.8434 59.7431 32.3283 59.9634 32.8806C60.4388 32.2679 60.8471 31.7474 60.6826 30.9603C60.5479 30.3155 60.1484 29.6751 60.5269 29.0316C60.6826 28.9384 60.6877 28.9381 60.8752 28.9483C61.705 29.4103 61.6331 30.7593 62.0488 31.4818C62.6342 32.4991 63.883 33.0486 64.4363 34.0855C65.0464 35.2289 65.2146 36.7092 65.8281 37.7477C65.7397 36.9306 65.5829 36.037 65.7562 35.2233C65.8193 35.1549 65.823 35.1099 65.933 35.1112C66.2702 35.115 66.5911 35.4672 66.7905 35.684C67.2588 36.1931 67.6757 36.9054 68.2125 37.342C68.897 37.8989 70.2254 38.076 71.0836 38.3932C71.4809 38.5412 71.8664 38.7105 72.2401 38.9009C72.6141 39.0915 72.9734 39.302 73.3182 39.5322C73.5723 39.6898 73.8195 39.8448 74.0508 40.0293C75.2806 39.7104 76.4587 38.9744 77.7121 38.813C76.6741 39.4202 75.4977 39.8692 74.346 40.2764C75.1257 41.1531 75.4645 42.3964 76.0169 43.3982L75.2391 43.8592C75.2289 44.1932 75.1411 44.7604 75.39 45.0308C76.2376 44.8918 77.1308 43.8277 78.0102 43.5311C79.8729 42.9029 81.9575 43.998 83.3524 42.1756C84.4927 40.6858 83.9156 38.8364 83.5397 37.2109C83.3947 36.5839 83.1512 35.527 82.5678 35.1071L82.5039 35.1C82.3439 35.3575 82.5272 35.8492 82.6119 36.1158C82.6263 36.1609 82.6411 36.2058 82.6562 36.2505C81.4491 36.4531 80.5725 36.5613 79.5791 37.2541C79.8101 37.5235 79.9453 37.7891 80.0888 38.0989C78.3685 38.4173 76.1845 38.1777 74.6898 37.3082C74.2636 37.0602 73.7896 36.6147 73.6936 36.1491C73.6726 36.0469 73.6723 35.989 73.7007 35.8909C73.7888 35.823 73.8027 35.7788 73.9286 35.7854C74.5677 35.8192 74.8416 36.5659 75.3417 36.8277C76.1396 37.2455 78.2773 37.601 79.0545 37.0294C79.2239 36.9047 79.3213 36.7456 79.3213 36.5463C79.321 36.3219 79.1574 36.0711 79.05 35.8756C79.2097 35.7285 79.3892 35.6027 79.4299 35.392C79.3228 35.3038 79.3779 35.3173 79.2381 35.3188C78.8539 35.3229 78.335 35.5529 77.9815 35.6916C77.4266 35.53 76.8213 35.3808 76.2368 35.3541C77.2382 34.5851 78.7311 33.7576 80.1161 33.8669C80.1701 33.8708 80.2237 33.8772 80.277 33.886C80.3302 33.8946 80.3828 33.9056 80.4349 33.919C80.487 33.9326 80.5382 33.9483 80.5884 33.9663C80.6388 33.9842 80.6879 34.0045 80.7359 34.027C80.784 34.0494 80.8307 34.0739 80.876 34.1005C80.9212 34.1271 80.9649 34.1556 81.007 34.1861C81.049 34.2166 81.0893 34.2489 81.1277 34.2829C81.1662 34.317 81.2026 34.3527 81.2371 34.3902C81.4559 34.6278 81.5738 34.9389 81.6921 35.2238L82.4886 34.8205C79.6981 29.0156 78.6862 27.6936 71.9298 25.2759C69.8782 24.5417 66.9403 23.9116 64.7256 24.27C63.9086 24.4022 62.9632 24.7939 62.1335 24.6686C60.8354 24.4724 60.3149 23.3755 58.2073 23.2762ZM68.3582 41.0472C67.616 41.2985 66.8272 41.6261 66.0406 41.7341C65.1089 41.8624 64.1936 41.7598 63.2832 42.0365L63.2201 42.0937C62.6129 42.6513 62.2821 43.2422 61.4535 43.5858C59.1967 43.0579 55.5885 41.6365 53.3558 42.7791C52.8699 43.0279 52.5235 43.4219 52.3815 43.9075C52.1914 44.5561 52.3491 45.2992 52.7384 45.8662C53.1973 46.5338 54.0029 47.0093 54.8559 47.1689C55.6879 47.3247 56.4682 47.1359 57.1579 46.7059C58.1024 46.1173 59.4013 43.9939 60.5868 44.2158C62.2784 44.5325 62.1144 46.9303 64.8074 47.096C65.9585 47.1666 69.7893 45.8232 70.2902 46.3635C70.3027 46.5503 70.2885 46.6655 70.1376 46.806C69.2854 47.601 66.4743 47.9082 65.2976 47.8772C64.2169 47.849 62.9084 47.6932 62.1448 46.9392C61.6064 46.4073 61.3387 45.6972 60.8187 45.1391C60.8053 45.1249 60.7928 45.1104 60.78 45.0961C60.7903 45.9521 60.8619 46.8922 60.6263 47.728C60.4234 48.449 59.3916 49.7258 59.6715 50.4372C59.8048 50.7757 60.1694 51.0944 60.4527 51.3439C60.8315 51.6776 61.1875 51.9973 61.5169 52.3717C60.3436 51.9485 58.4403 51.4075 57.8586 50.2895C57.7239 50.0311 57.7106 49.7543 57.8345 49.4905C58.0021 49.1327 58.3763 48.8948 58.5031 48.5151L58.4551 48.4231C57.9981 48.337 57.4699 48.4292 57.0056 48.4605C55.576 48.5568 54.4291 48.3883 53.1501 47.8365C52.8162 48.0292 52.4855 48.2147 52.1348 48.3822L52.0493 48.3441C51.4918 48.0897 51.2963 47.7913 51.1065 47.2632C50.8859 46.65 50.8061 45.3935 50.1051 45.0817C49.9423 45.009 49.6609 44.9764 49.4899 45.042C49.3441 45.0977 49.3023 45.1587 49.2634 45.2916C49.0457 46.0377 50.1315 48.0302 50.5174 48.7016C51.2795 49.9012 52.6338 50.1426 53.1822 51.0972C53.5255 51.6944 53.4908 52.4624 53.6985 53.1046C53.9639 53.9248 54.3399 54.7212 54.7454 55.4936C55.751 57.4083 56.8746 58.7791 59.2405 59.3682C62.5753 60.1985 66.0833 59.9116 69.1104 58.3763C70.7051 57.5674 75.332 54.6183 75.7623 53.0988C75.8182 52.9013 75.8202 52.6896 75.8268 52.4868C77.2583 52.4944 78.8621 52.1902 79.9209 51.2639C80.8697 50.4339 81.4286 49.1751 81.4389 47.9967C81.4468 47.0777 81.2877 45.9928 80.5316 45.3104C80.2099 45.0199 79.7564 44.7828 79.2867 44.7965C78.9553 44.8064 78.6044 44.9686 78.3947 45.1975C78.1861 45.4253 78.1412 45.7168 78.1824 46.0011C78.3103 46.8886 79.7376 47.985 79.7203 48.4945C79.4174 48.6872 78.7829 48.6 78.4163 48.585C78.1054 49.0544 77.7457 49.6361 77.1077 49.7762C76.8688 49.8288 76.6116 49.8089 76.4121 49.6679C76.2337 49.5418 76.1172 49.3367 76.1101 49.1342C76.0876 48.4907 77.0441 47.3201 76.5892 46.7709C76.049 46.686 75.4968 46.9005 74.9479 46.852C74.8672 47.1659 75.184 47.8879 75.2221 48.2912C74.55 48.0028 73.9252 47.6355 73.6649 46.9707C73.5839 46.7638 73.568 46.5587 73.6794 46.3569C74.1249 45.5505 75.3789 46.1064 74.8973 44.5924C74.8169 44.3403 74.6859 44.0783 74.4213 43.9418C73.4495 43.4404 71.8201 44.2915 70.5994 43.8488L70.5096 43.9113C70.4957 44.3619 70.7051 45.0743 70.4013 45.4499C70.2223 45.4613 70.151 45.4103 70.0217 45.3068C69.5463 44.9261 69.4298 44.107 69.4272 43.5591C69.4238 42.9314 69.6557 41.7715 69.1357 41.282C68.9308 41.0894 68.6418 41.0512 68.3582 41.0472ZM62.4819 33.8753C61.6666 34.0293 60.8684 34.2944 60.0333 34.3358C57.639 34.455 52.7935 33.6885 51.269 35.7232C51.0195 36.0563 50.7919 36.604 50.9073 37.0076C51.0255 37.4201 51.4568 37.6945 51.5853 38.092C51.8552 38.9274 51.6782 39.9887 51.7739 40.8708C53.0418 40.4814 54.6786 39.9566 55.9661 40.5132C56.2224 40.624 56.4373 40.7371 56.6117 40.9402C56.6248 41.035 56.6632 41.0784 56.5819 41.1549C56.4625 41.2675 56.3114 41.3082 56.146 41.3415C55.5245 41.467 54.8715 41.4896 54.2424 41.5865C53.5312 41.6962 52.6773 41.9763 51.9621 41.9489C51.7398 41.9402 51.5236 41.8752 51.3818 41.715C50.9024 41.1735 51.0007 39.2196 51.0843 38.5373C50.3466 38.9736 49.724 39.5269 49.3015 40.2329C49.31 40.8525 49.2515 43.9952 49.4259 44.274C49.8317 44.4791 50.308 44.3604 50.7424 44.2981C51.3244 43.216 52.1121 42.5067 53.3897 42.1013C56.45 41.1308 60.1873 42.7466 61.368 42.4175C62.2423 42.1738 62.4904 40.8342 63.5207 40.471C64.4045 40.1594 65.3808 40.5681 66.2319 40.132L66.2734 40.024C65.8889 39.4885 63.9376 39.5447 64.097 38.8168C64.299 38.5868 64.5298 38.4524 64.825 38.3289C64.5346 37.5764 63.3863 34.1714 62.8015 33.8923C62.7035 33.8453 62.589 33.871 62.4819 33.8753ZM68.9376 38.9876C68.7487 39.1055 68.5682 39.1924 68.4787 39.3917C68.5219 39.5155 68.5245 39.5383 68.6637 39.5998C68.9371 39.7211 69.2729 39.749 69.5622 39.8387C69.9308 40.8235 70.2888 41.8165 70.5889 42.8198C71.1314 42.6167 71.6721 42.4097 72.2109 42.1989C72.5893 42.0661 72.9689 41.9356 73.3495 41.8073C73.2293 41.2962 73.1369 40.3404 72.6092 40.0382C72.0472 39.716 69.5847 39.0379 68.9376 38.9876Z" fill="#9A9EA6"/>
<path d="M69.7975 50.2707C70.3314 50.2544 70.9546 50.3119 71.4805 50.3983C71.8272 50.455 72.2731 50.5652 72.4615 50.8595C72.5751 51.0377 72.5109 51.2372 72.4686 51.4248C71.7366 51.454 70.7531 51.301 70.1709 50.8867C69.9188 50.7076 69.8421 50.551 69.7975 50.2707Z" fill="#9A9EA6"/>
<path d="M59.4446 55.741C59.4908 55.7165 59.536 55.6916 59.5823 55.6681C60.6951 55.1092 62.769 54.4476 63.9147 54.906C64.2816 55.0531 64.3161 55.2271 64.4514 55.5617C64.275 55.7333 64.0934 55.905 63.8855 56.0389C62.9856 56.6178 61.5073 56.8738 60.5294 56.6182C59.9669 56.4713 59.7043 56.234 59.4446 55.741Z" fill="#9A9EA6"/>
<path d="M57.042 43.6396C57.4171 43.6719 58.1013 43.7746 58.3366 44.0643C58.4079 44.152 58.3673 44.2165 58.3525 44.3167C58.0695 44.7228 57.5833 44.687 57.1494 44.8877C57.0937 45.178 57.3963 45.4387 57.4327 45.7251C57.4534 45.8883 57.4227 45.993 57.3008 46.1127C57.1775 46.2334 57.0431 46.2921 56.855 46.2766C56.3293 46.2332 55.8769 45.7358 55.5459 45.4082C55.2057 45.0682 54.5948 44.873 54.4255 44.4023C54.3607 44.2232 54.4118 44.1855 54.5155 44.0414C54.9742 43.7845 55.5487 43.7881 56.0739 43.7454C56.1079 43.8956 56.7476 43.8641 56.1861 44.1957C56.2663 43.8641 56.6541 43.7601 56.855 43.8641C57.0829 43.8694 56.9013 44.5391 57.1042 44.4499L57.1255 44.3487C57.0337 44.2003 56.9047 44.0348 56.8828 43.8641C56.8695 43.7609 56.9701 43.7111 57.042 43.6396Z" fill="#9A9EA6"/>
<path d="M67.6572 43.1017C67.8223 43.0702 68.0198 43.0661 68.1838 43.1009C68.4537 43.1581 68.7126 43.2669 68.8515 43.4888C68.8646 43.598 68.8757 43.6786 68.8183 43.7815C68.6484 44.0862 68.1298 44.147 67.8033 44.2639C67.6507 44.4794 67.9431 44.8194 67.9084 45.0972C67.8848 45.2855 67.8152 45.3653 67.6672 45.4929C67.2461 45.6078 66.7309 45.3277 66.349 45.1803C66.0799 45.0189 65.9068 44.8146 65.7068 44.5915C65.2641 44.4568 64.6474 44.3023 64.3761 43.9325C64.2763 43.7968 64.286 43.7134 64.317 43.5609C64.3502 43.5254 64.4636 43.378 64.5002 43.3647C64.6417 43.3134 67.2282 43.1505 67.6572 43.1017Z" fill="#9A9EA6"/>
<path d="M65.7897 26.7625C65.9349 26.8036 65.9435 26.8051 66.0338 26.9139C66.1123 27.5399 66.0014 29.0998 65.8721 29.7207C65.7053 29.6533 65.642 29.651 65.59 29.479C65.4152 28.8993 65.4757 27.2623 65.7897 26.7625Z" fill="#9A9EA6"/>
<path d="M82.8146 37.9788C82.9564 38.0471 82.9444 38.0108 82.9987 38.1628C82.7913 38.4705 82.479 38.7026 82.14 38.8909C80.8783 39.592 80.0565 39.2355 78.7522 38.9554C78.6221 38.9054 78.5457 38.8492 78.4434 38.762L78.4615 38.6731C79.0199 38.5262 79.7718 38.7249 80.3353 38.7994C81.3977 38.9394 82.0027 38.514 82.8146 37.9788Z" fill="#9A9EA6"/>
<path d="M78.5098 31.0795C79.0503 31.0536 79.562 31.0658 80.0937 31.1586C80.2133 31.2704 80.3472 31.3863 80.45 31.5108C80.5657 31.6508 80.6 31.7502 80.5807 31.9192C80.4148 32.0216 80.346 32.0122 80.1491 32.0242C79.5248 32.0895 78.9829 32.0491 78.3916 31.8356C78.1452 31.7469 77.9875 31.6707 77.8846 31.4465L77.9406 31.3321C78.1168 31.1947 78.2901 31.1453 78.5098 31.0795Z" fill="#9A9EA6"/>
<path d="M71.2325 26.2021C71.511 26.153 71.7989 26.1678 72.0614 26.2631C72.1989 26.3995 72.2086 26.4102 72.2339 26.5919C72.1768 26.735 72.1285 26.8379 72.0086 26.9487C71.6249 27.3033 71.1453 27.317 70.6293 27.3267C70.2593 27.253 69.7708 27.1424 69.5299 26.871C69.525 26.781 69.5 26.7434 69.5691 26.6679C69.922 26.2811 70.7227 26.256 71.2325 26.2021Z" fill="#9A9EA6"/>
<path d="M70.0692 35.0541C70.9149 35.0602 72.5493 36.2226 73.1938 36.7007C73.3768 36.8364 73.4106 36.8852 73.441 37.0958C72.507 37.0735 71.4499 36.6981 70.741 36.154C70.3309 35.8394 70.1181 35.5354 70.0692 35.0541Z" fill="#9A9EA6"/>
<path d="M71.6389 31.4613C71.7816 31.4764 71.9238 31.4937 72.0657 31.5131C72.7002 31.6031 75.6018 31.921 75.949 32.1754C76.0078 32.2184 76.0388 32.2852 76.0837 32.3401C76.105 32.5345 76.038 32.6311 75.9365 32.794C75.8095 32.8393 75.7078 32.872 75.57 32.8827C74.9457 32.9315 72.199 32.2913 71.7782 31.8644C71.6318 31.7157 71.646 31.6501 71.6389 31.4613Z" fill="#9A9EA6"/>
<path d="M68.1142 31.4059C68.4958 31.5828 68.514 32.0283 68.8777 32.2057C69.2721 32.3975 69.9447 32.3086 70.2815 32.5772C70.4289 32.6951 70.4269 32.7406 70.4508 32.9063C70.2224 33.2649 69.4517 33.2067 69.0383 33.3282C68.859 33.3808 68.6799 33.4799 68.6081 33.6436C68.2725 34.4065 69.5964 36.2666 69.9757 37.0145L70.0098 37.0992L69.9541 37.1942C68.9436 36.6676 68.2932 34.8528 67.9721 33.884C67.5251 33.804 66.898 33.7366 66.6082 33.3938C66.6192 32.8387 67.6539 32.5132 67.9579 32.0229C68.0622 31.8547 68.0815 31.5973 68.1142 31.4059Z" fill="#9A9EA6"/>
</svg>
